<?xml version="1.0" standalone="no"?>
<!DOCTYPE svg PUBLIC "-//W3C//DTD SVG 20010904//EN"
 "http://www.w3.org/TR/2001/REC-SVG-20010904/DTD/svg10.dtd">
<svg version="1.0" xmlns="http://www.w3.org/2000/svg"
 width="214.000000pt" height="214.000000pt" viewBox="0 0 214.000000 214.000000"
 preserveAspectRatio="xMidYMid meet">

<g transform="translate(0.000000,214.000000) scale(0.100000,-0.100000)"
fill="#000000" stroke="none">
<path d="M844 1935 c-18 -15 -18 -15 10 -13 16 2 31 9 34 16 5 17 -20 15 -44
-3z"/>
<path d="M1740 1800 c8 -5 20 -10 25 -10 6 0 3 5 -5 10 -8 5 -19 10 -25 10 -5
0 -3 -5 5 -10z"/>
<path d="M1640 1780 c8 -5 20 -10 25 -10 6 0 3 5 -5 10 -8 5 -19 10 -25 10 -5
0 -3 -5 5 -10z"/>
<path d="M1877 1739 c7 -7 15 -10 18 -7 3 3 -2 9 -12 12 -14 6 -15 5 -6 -5z"/>
<path d="M1809 1633 c-13 -16 -12 -17 4 -4 9 7 17 15 17 17 0 8 -8 3 -21 -13z"/>
<path d="M1077 1517 c-9 -27 -12 -49 -6 -52 5 -4 9 3 9 15 0 12 5 30 11 41 6
11 9 25 6 32 -2 6 -11 -10 -20 -36z"/>
<path d="M1159 1520 c-7 -35 -4 -48 7 -38 3 4 4 21 2 40 l-3 33 -6 -35z"/>
<path d="M1225 1470 c-3 -5 1 -10 10 -10 29 0 66 -143 63 -247 -2 -83 9 -92
14 -11 7 129 -55 320 -87 268z"/>
<path d="M1048 1408 c-28 -30 -49 -70 -62 -119 -4 -13 7 4 23 38 16 35 42 74
57 88 15 14 24 25 19 25 -4 0 -20 -14 -37 -32z"/>
<path d="M986 1415 c-9 -26 -7 -32 5 -12 6 10 9 21 6 23 -2 3 -7 -2 -11 -11z"/>
<path d="M2090 1411 c39 -22 50 -25 50 -12 0 5 -10 11 -22 14 -13 2 -32 8 -43
11 -11 4 -4 -2 15 -13z"/>
<path d="M881 1389 c-11 -17 -22 -47 -26 -67 -8 -45 -65 -158 -101 -203 l-28
-34 27 24 c31 28 102 161 112 211 4 19 15 50 26 68 24 41 15 42 -10 1z"/>
<path d="M926 1378 c-16 -25 -40 -118 -32 -125 3 -3 8 12 12 33 4 22 15 56 26
77 20 41 17 50 -6 15z"/>
<path d="M940 1306 c-20 -39 -41 -70 -48 -68 -7 1 -12 -3 -12 -10 0 -6 -16
-42 -35 -80 -24 -45 -30 -66 -20 -62 8 3 13 10 10 14 -3 4 21 47 51 96 55 86
99 172 92 179 -1 1 -19 -29 -38 -69z"/>
<path d="M1090 1335 c0 -8 2 -15 4 -15 2 0 6 7 10 15 3 8 1 15 -4 15 -6 0 -10
-7 -10 -15z"/>
<path d="M1215 1315 c0 -18 3 -31 7 -29 10 7 10 51 1 57 -5 3 -8 -10 -8 -28z"/>
<path d="M1889 1339 c-17 -10 -4 -24 32 -33 21 -5 28 -2 32 14 3 11 0 20 -6
21 -7 0 -19 2 -28 4 -9 1 -23 -1 -30 -6z"/>
<path d="M1081 1294 c0 -11 3 -14 6 -6 3 7 2 16 -1 19 -3 4 -6 -2 -5 -13z"/>
<path d="M1800 1240 c0 -5 21 -10 48 -9 38 1 42 2 22 9 -36 12 -70 12 -70 0z"/>
<path d="M240 1219 c0 -5 5 -7 10 -4 6 3 10 8 10 11 0 2 -4 4 -10 4 -5 0 -10
-5 -10 -11z"/>
<path d="M1063 1223 c15 -2 37 -2 50 0 12 2 0 4 -28 4 -27 0 -38 -2 -22 -4z"/>
<path d="M1250 1216 c0 -2 9 -6 20 -9 11 -3 18 -1 14 4 -5 9 -34 13 -34 5z"/>
<path d="M1098 1193 c12 -2 32 -2 45 0 12 2 2 4 -23 4 -25 0 -35 -2 -22 -4z"/>
<path d="M1010 1159 c-7 -11 -10 -23 -7 -25 2 -2 9 7 15 21 14 30 7 33 -8 4z"/>
<path d="M966 1145 c-3 -9 -6 -26 -5 -38 1 -14 4 -9 9 13 9 37 7 52 -4 25z"/>
<path d="M50 1109 c-9 -16 -8 -26 5 -45 8 -13 18 -24 22 -24 3 0 3 3 0 7 -4 3
1 11 10 18 9 7 13 17 9 23 -12 19 -26 14 -26 -10 -1 -20 -2 -21 -11 -6 -7 12
-6 24 1 38 6 11 8 20 6 20 -3 0 -10 -9 -16 -21z"/>
<path d="M103 1112 c9 -10 17 -27 17 -38 0 -15 2 -16 9 -5 10 16 -5 47 -28 56
-11 5 -11 1 2 -13z"/>
<path d="M993 1070 c0 -30 2 -43 4 -27 2 15 2 39 0 55 -2 15 -4 2 -4 -28z"/>
<path d="M712 1055 c-17 -37 -14 -45 4 -12 9 16 14 31 11 33 -2 2 -9 -7 -15
-21z"/>
<path d="M951 1064 c0 -11 3 -14 6 -6 3 7 2 16 -1 19 -3 4 -6 -2 -5 -13z"/>
<path d="M918 1063 c7 -3 16 -2 19 1 4 3 -2 6 -13 5 -11 0 -14 -3 -6 -6z"/>
<path d="M1178 1063 c18 -2 45 -2 60 0 15 2 0 4 -33 4 -33 0 -45 -2 -27 -4z"/>
<path d="M791 1024 c-2 -60 80 -105 188 -102 l66 1 -75 7 c-104 9 -162 43
-173 100 -4 22 -4 22 -6 -6z"/>
<path d="M710 1000 c0 -5 5 -10 11 -10 5 0 7 5 4 10 -3 6 -8 10 -11 10 -2 0
-4 -4 -4 -10z"/>
<path d="M1118 933 c17 -2 47 -2 65 0 17 2 3 4 -33 4 -36 0 -50 -2 -32 -4z"/>
<path d="M445 865 c0 -18 3 -31 8 -28 4 2 7 15 7 28 0 13 -3 26 -7 28 -5 3 -8
-10 -8 -28z"/>
<path d="M1988 873 c7 -3 16 -2 19 1 4 3 -2 6 -13 5 -11 0 -14 -3 -6 -6z"/>
<path d="M2028 863 c7 -3 16 -2 19 1 4 3 -2 6 -13 5 -11 0 -14 -3 -6 -6z"/>
<path d="M2070 850 c19 -13 30 -13 30 0 0 6 -10 10 -22 10 -19 0 -20 -2 -8
-10z"/>
<path d="M225 830 c-3 -5 -2 -18 4 -27 7 -14 9 -12 8 10 -2 30 -3 31 -12 17z"/>
<path d="M415 745 c-38 -25 -76 -42 -83 -40 -7 3 -10 0 -7 -5 11 -17 28 -11
100 34 38 25 73 42 77 40 5 -3 8 0 8 5 0 19 -23 11 -95 -34z"/>
<path d="M782 755 c12 -14 23 -25 25 -25 2 0 -4 11 -13 25 -9 14 -20 25 -25
25 -5 0 1 -11 13 -25z"/>
<path d="M530 750 c-6 -11 -8 -20 -6 -20 3 0 10 9 16 20 6 11 8 20 6 20 -3 0
-10 -9 -16 -20z"/>
<path d="M1000 665 c13 -14 26 -25 28 -25 3 0 -5 11 -18 25 -13 14 -26 25 -28
25 -3 0 5 -11 18 -25z"/>
<path d="M1461 675 c0 -5 6 -21 14 -35 8 -14 14 -20 14 -15 0 6 -6 21 -14 35
-8 14 -14 21 -14 15z"/>
<path d="M835 630 c-16 -11 -25 -20 -20 -20 10 0 64 39 55 40 -3 0 -18 -9 -35
-20z"/>
<path d="M1441 640 c0 -8 4 -24 9 -35 5 -13 9 -14 9 -5 0 8 -4 24 -9 35 -5 13
-9 14 -9 5z"/>
<path d="M1825 630 c11 -5 27 -9 35 -9 9 0 8 4 -5 9 -11 5 -27 9 -35 9 -9 0
-8 -4 5 -9z"/>
<path d="M1051 596 c12 -20 23 -36 25 -36 7 0 -25 58 -36 65 -5 3 -1 -10 11
-29z"/>
<path d="M980 615 c0 -5 9 -23 20 -40 11 -16 20 -25 20 -20 0 6 -9 24 -20 40
-11 17 -20 26 -20 20z"/>
<path d="M1905 610 c26 -11 35 -12 35 -2 0 4 -12 8 -27 9 -24 1 -25 1 -8 -7z"/>
<path d="M400 601 c0 -5 5 -13 10 -16 6 -3 10 -2 10 4 0 5 -4 13 -10 16 -5 3
-10 2 -10 -4z"/>
<path d="M524 591 c7 -11 46 -35 46 -28 0 3 -12 12 -26 22 -15 9 -23 12 -20 6z"/>
<path d="M900 579 c0 -5 5 -7 10 -4 6 3 10 8 10 11 0 2 -4 4 -10 4 -5 0 -10
-5 -10 -11z"/>
<path d="M450 558 c14 -13 36 -34 49 -48 l23 -25 -17 28 c-10 15 -32 37 -49
48 l-31 21 25 -24z"/>
<path d="M895 550 c-3 -5 -1 -10 4 -10 6 0 11 5 11 10 0 6 -2 10 -4 10 -3 0
-8 -4 -11 -10z"/>
<path d="M1501 544 c0 -11 3 -14 6 -6 3 7 2 16 -1 19 -3 4 -6 -2 -5 -13z"/>
<path d="M1371 494 c0 -11 3 -14 6 -6 3 7 2 16 -1 19 -3 4 -6 -2 -5 -13z"/>
<path d="M1680 506 c0 -2 7 -7 16 -10 8 -3 12 -2 9 4 -6 10 -25 14 -25 6z"/>
<path d="M748 462 c19 -23 39 -45 45 -49 7 -4 -3 12 -21 35 -19 23 -39 45 -45
49 -7 4 3 -12 21 -35z"/>
<path d="M1770 490 c0 -10 50 -23 58 -15 3 3 -3 5 -14 6 -18 0 -18 1 1 9 16 6
14 8 -12 7 -18 0 -33 -3 -33 -7z"/>
<path d="M1851 484 c0 -11 3 -14 6 -6 3 7 2 16 -1 19 -3 4 -6 -2 -5 -13z"/>
<path d="M690 486 c0 -15 71 -106 83 -106 6 0 -3 15 -20 33 -16 17 -37 43 -46
57 -10 13 -17 21 -17 16z"/>
<path d="M1636 439 c9 -69 11 -71 16 -14 2 30 -1 50 -10 57 -11 9 -12 1 -6
-43z"/>
<path d="M1470 468 c0 -9 -6 -19 -12 -21 -10 -4 -10 -6 0 -6 14 -1 28 26 18
36 -3 4 -6 -1 -6 -9z"/>
<path d="M1710 422 l5 -57 3 49 c2 27 0 52 -5 57 -4 4 -6 -18 -3 -49z"/>
<path d="M1380 440 c0 -5 5 -10 11 -10 5 0 7 5 4 10 -3 6 -8 10 -11 10 -2 0
-4 -4 -4 -10z"/>
<path d="M1756 413 c-7 -25 10 -51 24 -36 3 3 -1 8 -7 10 -8 3 -11 14 -7 29 3
13 4 24 1 24 -3 0 -8 -12 -11 -27z"/>
<path d="M1377 379 c7 -7 15 -10 18 -7 3 3 -2 9 -12 12 -14 6 -15 5 -6 -5z"/>
<path d="M1428 373 c6 -2 18 -2 25 0 6 3 1 5 -13 5 -14 0 -19 -2 -12 -5z"/>
<path d="M1822 360 c0 -14 2 -19 5 -12 2 6 2 18 0 25 -3 6 -5 1 -5 -13z"/>
<path d="M1644 352 c2 -4 19 -8 38 -9 30 -1 31 -1 8 7 -33 11 -52 12 -46 2z"/>
<path d="M1721 344 c0 -11 3 -14 6 -6 3 7 2 16 -1 19 -3 4 -6 -2 -5 -13z"/>
<path d="M1741 344 c0 -11 3 -14 6 -6 3 7 2 16 -1 19 -3 4 -6 -2 -5 -13z"/>
<path d="M1806 313 c-6 -14 -5 -15 5 -6 7 7 10 15 7 18 -3 3 -9 -2 -12 -12z"/>
<path d="M1685 310 c3 -5 8 -10 11 -10 2 0 4 5 4 10 0 6 -5 10 -11 10 -5 0 -7
-4 -4 -10z"/>
<path d="M1260 271 c-34 -4 -47 -8 -35 -12 27 -8 95 1 95 12 0 5 -1 8 -2 7 -2
-1 -28 -4 -58 -7z"/>
<path d="M1674 273 c10 -11 36 -12 36 -2 0 5 -10 9 -22 9 -12 0 -18 -3 -14 -7z"/>
<path d="M1135 260 c-3 -5 -1 -10 4 -10 6 0 11 5 11 10 0 6 -2 10 -4 10 -3 0
-8 -4 -11 -10z"/>
<path d="M1013 224 c-18 -14 -33 -22 -33 -17 0 4 -4 1 -9 -7 -16 -24 -1 -32
18 -8 l18 22 27 -42 c14 -23 29 -42 31 -42 3 0 -6 18 -21 41 -24 39 -25 42 -8
60 23 26 15 24 -23 -7z"/>
<path d="M1243 195 c0 -27 2 -38 4 -22 2 15 2 37 0 50 -2 12 -4 0 -4 -28z"/>
<path d="M1132 160 c0 -14 2 -19 5 -12 2 6 2 18 0 25 -3 6 -5 1 -5 -13z"/>
<path d="M961 134 c0 -11 3 -14 6 -6 3 7 2 16 -1 19 -3 4 -6 -2 -5 -13z"/>
</g>
</svg>
