<?xml version="1.0" standalone="no"?>
<!DOCTYPE svg PUBLIC "-//W3C//DTD SVG 20010904//EN"
 "http://www.w3.org/TR/2001/REC-SVG-20010904/DTD/svg10.dtd">
<svg version="1.0" xmlns="http://www.w3.org/2000/svg"
 width="165.000000pt" height="186.000000pt" viewBox="0 0 165.000000 186.000000"
 preserveAspectRatio="xMidYMid meet">

<g transform="translate(0.000000,186.000000) scale(0.100000,-0.100000)"
fill="#000000" stroke="none">
<path d="M750 1778 c-68 -46 -61 -128 12 -150 29 -9 41 -9 50 0 9 9 3 12 -24
12 -46 0 -68 22 -68 65 0 34 36 75 66 75 8 0 14 5 14 10 0 16 -14 12 -50 -12z"/>
<path d="M844 1776 c-3 -7 -4 -40 -2 -72 3 -52 5 -59 26 -62 12 -2 22 1 22 7
0 6 -7 8 -15 5 -12 -5 -15 2 -15 29 0 29 4 36 23 40 l22 4 -22 2 c-17 1 -23 7
-23 25 0 19 6 26 28 29 25 4 24 4 -6 6 -19 0 -35 -4 -38 -13z"/>
<path d="M1047 1783 c-4 -3 -6 -40 -5 -82 0 -42 3 -61 5 -42 l4 33 31 -28 c30
-28 30 -17 0 19 -14 15 -13 19 3 37 22 24 13 70 -14 70 -10 0 -21 -3 -24 -7z
m37 -19 c7 -17 -10 -54 -24 -54 -11 0 -14 53 -3 63 11 11 20 8 27 -9z"/>
<path d="M1170 1753 c-12 -46 -24 -131 -12 -93 6 18 15 25 32 25 21 0 26 -6
31 -35 l6 -35 2 36 c1 42 -26 139 -39 139 -5 0 -14 -17 -20 -37z m33 -19 c3
-16 0 -28 -10 -31 -19 -8 -22 -2 -16 30 7 34 19 35 26 1z"/>
<path d="M947 1773 c-4 -3 -6 -40 -6 -82 1 -54 3 -66 8 -41 l6 35 22 -30 c12
-17 22 -25 22 -20 1 6 -8 21 -18 34 -17 22 -17 26 -3 51 9 15 13 34 9 43 -6
17 -28 23 -40 10z m22 -44 c-12 -21 -14 -22 -17 -6 -6 28 6 53 19 40 8 -8 7
-18 -2 -34z"/>
<path d="M1277 1764 c-4 -4 -6 -35 -6 -68 1 -34 4 -51 6 -38 6 28 18 28 37 0
9 -12 16 -18 16 -14 0 5 -7 18 -17 28 -15 17 -15 19 1 37 10 11 16 28 14 38
-3 18 -38 30 -51 17z m38 -14 c6 -10 -15 -50 -27 -50 -10 0 -11 44 -1 53 9 10
21 9 28 -3z"/>
<path d="M250 1700 l-165 -5 -6 -110 c-4 -60 -7 -214 -8 -342 l-1 -232 177 5
c98 3 202 7 230 10 61 6 59 2 67 134 3 47 10 121 15 165 6 44 10 149 10 233
l1 152 -77 -2 c-43 -1 -152 -5 -243 -8z m299 -235 c-5 -121 -13 -242 -18 -270
-5 -27 -10 -73 -10 -101 l-1 -51 -147 -7 c-82 -3 -181 -9 -222 -12 l-74 -7 6
289 c4 159 10 311 13 338 l7 49 101 -5 c56 -3 155 -2 221 1 66 3 123 4 126 1
4 -3 3 -104 -2 -225z"/>
<path d="M311 1597 c-1 -25 4 -40 14 -43 24 -9 45 15 44 50 -1 33 -3 29 -13
-17 -9 -37 -29 -29 -37 14 l-6 34 -2 -38z"/>
<path d="M176 1604 c-3 -9 -6 -28 -6 -44 0 -23 5 -28 30 -32 17 -3 30 -1 30 3
0 4 -10 9 -22 11 -20 3 -23 8 -20 41 4 39 -2 48 -12 21z"/>
<path d="M448 1613 c27 -5 27 -11 2 -43 -11 -14 -20 -31 -20 -37 0 -15 29 -17
50 -3 12 8 10 10 -8 10 l-24 0 21 34 c27 44 27 46 -11 45 -24 -1 -27 -3 -10
-6z"/>
<path d="M317 1470 c22 -45 15 -203 -11 -228 -18 -16 -18 -13 -12 83 3 55 2
113 -2 129 -5 19 -9 -15 -10 -103 l-2 -132 63 3 c59 3 63 5 77 35 11 25 22 33
41 33 31 0 39 15 39 76 0 43 -1 44 -34 44 -31 0 -34 3 -42 43 l-9 42 -57 3
-57 3 16 -31z m71 14 c17 -5 22 -14 22 -40 0 -22 -5 -34 -14 -34 -18 0 -26
-22 -26 -71 0 -24 5 -39 13 -39 28 -1 38 -16 28 -43 -9 -23 -16 -27 -52 -27
-35 0 -40 2 -34 18 22 51 27 179 8 228 -6 15 15 18 55 8z m44 -121 l1 -38 4
38 c4 32 8 37 29 37 25 0 25 -2 19 -42 -4 -24 -8 -44 -10 -46 -5 -6 -84 -6
-91 0 -3 4 -3 25 1 47 5 31 11 41 26 41 15 0 19 -8 21 -37z"/>
<path d="M961 1537 c-14 -17 -71 -155 -71 -173 0 -7 17 -18 38 -24 20 -7 41
-16 45 -20 4 -3 -6 -36 -23 -71 -44 -94 -41 -107 17 -63 l33 25 0 -65 0 -65
-32 -4 c-32 -4 -32 -4 5 -5 l37 -2 0 73 c0 68 10 97 32 97 4 0 8 -38 8 -85 0
-47 2 -85 4 -85 14 0 58 21 53 26 -3 3 -15 1 -27 -6 -21 -11 -21 -10 -18 77
l3 88 50 32 c46 31 84 68 85 85 0 3 -20 14 -45 24 -25 9 -45 20 -45 23 0 3 16
30 35 59 20 29 33 57 30 62 -10 16 -200 13 -214 -3z m199 -5 c0 -4 -16 -32
-35 -62 -19 -30 -35 -58 -35 -62 0 -4 20 -13 45 -19 64 -16 56 -33 -40 -97
-44 -29 -97 -67 -118 -84 -21 -16 -40 -28 -42 -26 -3 2 11 34 29 71 37 73 36
76 -26 96 -21 7 -38 16 -38 19 0 4 16 44 37 90 l36 82 94 0 c51 0 93 -4 93 -8z"/>
<path d="M956 1414 c-3 -9 -3 -20 0 -25 8 -13 34 9 34 27 0 19 -26 18 -34 -2z"/>
<path d="M1022 1408 c2 -13 8 -23 13 -23 6 0 11 10 13 23 2 15 -2 22 -13 22
-11 0 -15 -7 -13 -22z"/>
<path d="M990 1360 c-9 -6 -10 -10 -3 -10 6 0 15 5 18 10 8 12 4 12 -15 0z"/>
<path d="M634 1489 c12 -38 19 -165 12 -194 -6 -22 -9 -25 -21 -15 -9 7 -15 8
-15 2 0 -5 7 -15 16 -22 13 -11 19 -10 37 8 13 14 17 22 8 22 -9 0 -11 10 -6
41 8 45 -11 166 -28 176 -7 4 -8 -2 -3 -18z"/>
<path d="M1466 994 c-20 -19 -20 -28 -1 -44 23 -19 19 -57 -7 -65 -16 -4 -19
-8 -9 -12 7 -3 22 4 33 15 19 19 19 21 3 56 -14 29 -15 39 -5 51 16 20 6 19
-14 -1z"/>
<path d="M744 979 c-11 -19 -15 -137 -4 -144 6 -4 10 8 10 29 0 29 4 36 19 36
18 0 51 34 51 52 0 27 -62 50 -76 27z m56 -28 c0 -20 -19 -41 -37 -41 -17 0
-17 57 0 63 19 7 37 -4 37 -22z"/>
<path d="M1347 939 c-18 -55 -22 -103 -5 -56 5 15 16 27 23 27 8 0 16 -12 18
-27 3 -18 4 -12 5 17 2 49 -6 90 -18 90 -4 0 -14 -23 -23 -51z"/>
<path d="M870 915 c0 -36 2 -65 4 -65 2 0 11 -3 20 -6 9 -3 16 -1 16 5 0 6 -7
11 -15 11 -21 0 -19 40 3 56 16 13 16 13 0 14 -27 0 -23 38 5 43 19 4 18 4 -5
6 -28 1 -28 1 -28 -64z"/>
<path d="M977 973 c-4 -3 -6 -34 -6 -67 1 -34 4 -49 6 -33 5 34 18 34 39 2 9
-14 19 -23 22 -20 3 3 -3 14 -13 25 -16 17 -16 24 -5 44 7 14 10 32 7 40 -6
16 -38 22 -50 9z m43 -12 c0 -21 -13 -41 -26 -41 -14 0 -19 31 -7 43 10 10 33
8 33 -2z"/>
<path d="M1150 916 c0 -60 12 -89 28 -71 4 4 1 10 -6 12 -9 4 -11 20 -6 64 5
41 3 59 -5 59 -7 0 -11 -23 -11 -64z"/>
<path d="M1242 923 c-2 -54 0 -63 16 -63 11 0 13 3 5 8 -6 4 -13 32 -16 62
l-3 55 -2 -62z"/>
<path d="M1082 940 c0 -19 2 -27 5 -17 2 9 2 25 0 35 -3 9 -5 1 -5 -18z"/>
<path d="M1236 833 c-3 -3 -6 -13 -6 -22 0 -9 -4 -22 -9 -30 -8 -12 -12 -12
-25 -2 -14 12 -16 10 -16 -12 0 -32 -9 -57 -21 -57 -5 0 -9 12 -9 27 0 25 -1
26 -19 8 -36 -32 -60 -92 -51 -130 12 -52 -4 -42 -22 13 l-15 47 -23 -49 c-19
-42 -22 -60 -16 -118 7 -81 24 -124 60 -157 24 -22 26 -31 26 -102 0 -75 -1
-78 -27 -88 l-28 -10 30 2 30 2 3 82 c3 89 5 91 60 77 20 -6 22 -12 22 -70 0
-66 9 -82 37 -65 16 9 16 10 -4 11 -21 0 -23 5 -23 59 l0 58 39 7 c28 4 48 17
74 45 51 57 67 93 67 151 0 47 -2 51 -20 45 -19 -6 -19 -5 -4 32 12 28 15 56
11 107 -3 37 -9 71 -12 74 -3 4 -18 -9 -32 -27 l-27 -34 -12 34 c-7 19 -13 46
-13 61 -1 27 -13 43 -25 31z m30 -155 c-5 -42 8 -52 18 -15 3 13 16 37 28 52
l22 29 7 -25 c14 -49 9 -97 -16 -144 -28 -52 -27 -62 3 -46 30 16 32 14 32
-21 -1 -46 -31 -107 -73 -147 -33 -31 -42 -34 -94 -34 -125 0 -173 54 -173
198 0 68 11 121 22 105 2 -3 10 -18 18 -34 25 -50 40 -44 33 13 -5 41 -2 56
18 88 18 28 25 34 27 21 5 -28 41 -22 48 7 5 18 10 23 18 16 9 -8 16 0 26 27
l13 37 14 -45 c7 -25 12 -62 9 -82z"/>
<path d="M1087 476 c-3 -8 -3 -17 0 -20 7 -7 33 13 33 25 0 15 -27 10 -33 -5z"/>
<path d="M1192 449 c1 -13 8 -23 13 -21 15 3 12 35 -3 40 -9 3 -13 -3 -10 -19z"/>
<path d="M1129 387 c15 -19 56 -23 67 -6 4 7 0 9 -14 5 -12 -4 -32 -2 -44 5
-21 11 -22 11 -9 -4z"/>
<path d="M270 813 c-14 -3 -38 -14 -55 -26 -114 -78 -147 -170 -110 -312 19
-73 65 -131 133 -168 67 -36 123 -43 200 -23 109 28 168 79 192 167 10 37 10
37 62 35 50 -1 53 0 70 34 9 19 17 54 18 77 0 58 -29 78 -100 69 -41 -5 -50
-4 -50 8 0 25 -56 80 -112 111 -45 25 -66 29 -138 31 -47 1 -96 0 -110 -3z
m234 -37 c56 -28 100 -68 110 -103 6 -19 2 -23 -31 -28 -21 -4 -66 -13 -101
-19 -49 -10 -64 -10 -72 0 -6 6 -25 14 -42 16 -59 9 -94 -61 -63 -127 15 -31
22 -35 56 -35 28 0 43 6 55 23 18 24 29 23 182 -9 28 -6 29 -32 2 -83 -24 -49
-57 -75 -126 -101 -83 -31 -166 -27 -230 10 -64 36 -109 89 -123 146 -15 60
-14 168 3 208 17 41 94 107 144 123 58 20 174 9 236 -21z m244 -132 c24 -17
28 -44 11 -95 -20 -60 -23 -61 -140 -43 -171 28 -176 30 -181 65 -6 36 -10 34
109 54 51 9 103 20 115 25 34 13 61 12 86 -6z m-350 -30 c46 -32 18 -124 -38
-124 -35 0 -50 23 -50 77 0 61 39 82 88 47z"/>
<path d="M336 732 c-18 -35 -22 -68 -4 -37 16 30 17 30 33 9 14 -18 15 -17 9
11 -10 46 -21 50 -38 17z"/>
<path d="M427 753 c-4 -3 1 -15 10 -25 15 -16 15 -21 3 -28 -8 -5 -11 -12 -8
-15 11 -11 28 5 28 25 0 10 -6 21 -12 23 -10 4 -9 8 2 16 13 9 13 11 -1 11 -9
0 -19 -3 -22 -7z"/>
<path d="M226 724 c-4 -15 -2 -32 5 -40 18 -22 53 -13 57 14 3 18 -1 22 -20
21 -18 -1 -19 -2 -5 -6 22 -6 17 -27 -8 -31 -15 -3 -17 2 -13 32 5 41 -7 49
-16 10z"/>
<path d="M816 718 c25 -49 9 -234 -24 -278 -2 -2 -7 2 -12 10 -8 13 -10 13
-10 0 0 -22 20 -40 44 -39 16 1 17 2 4 6 -15 4 -15 8 -3 36 18 42 38 192 30
220 -13 46 -28 77 -36 77 -5 0 -2 -14 7 -32z"/>
</g>
</svg>
