<?xml version="1.0" standalone="no"?>
<!DOCTYPE svg PUBLIC "-//W3C//DTD SVG 20010904//EN"
 "http://www.w3.org/TR/2001/REC-SVG-20010904/DTD/svg10.dtd">
<svg version="1.0" xmlns="http://www.w3.org/2000/svg"
 width="186.000000pt" height="148.000000pt" viewBox="0 0 186.000000 148.000000"
 preserveAspectRatio="xMidYMid meet">

<g transform="translate(0.000000,148.000000) scale(0.100000,-0.100000)"
fill="#000000" stroke="none">
<path d="M1186 1343 c-3 -4 -3 -47 0 -97 7 -85 6 -89 -12 -82 -50 21 -60 0
-14 -31 42 -29 49 -29 93 5 57 43 48 63 -17 36 -18 -7 -19 -3 -12 84 6 86 5
92 -12 92 -10 0 -22 -3 -26 -7z"/>
<path d="M317 1213 c-4 -3 -7 -30 -7 -60 0 -55 -1 -56 -52 -67 -29 -6 -47 -41
-30 -58 6 -6 25 -13 43 -17 l33 -7 -3 -59 c-1 -33 -6 -64 -11 -68 -4 -5 -34
-12 -66 -16 -75 -9 -97 -22 -120 -68 -17 -34 -18 -67 -19 -338 0 -343 0 -344
82 -390 l48 -26 225 3 c205 3 229 5 272 25 81 37 82 42 75 291 -4 119 -11 268
-16 330 -11 150 -20 163 -122 177 l-74 10 -7 40 c-15 84 -11 100 25 110 61 18
35 85 -33 85 -24 0 -25 3 -22 39 l4 38 -90 17 c-98 18 -125 19 -135 9z m143
-26 c64 -12 65 -13 62 -42 -2 -17 -5 -31 -6 -32 -2 -2 -44 -6 -94 -9 l-92 -7
0 52 0 51 33 0 c17 -1 61 -6 97 -13z m144 -113 c20 -19 12 -34 -17 -34 -43 0
-48 -11 -41 -89 8 -86 23 -101 100 -101 78 0 92 -17 104 -120 18 -166 33 -436
28 -519 -5 -78 -7 -86 -33 -107 -51 -40 -113 -49 -330 -46 -185 2 -203 4 -244
24 -73 38 -76 50 -74 365 1 153 6 288 12 310 16 60 48 84 120 90 33 3 65 11
71 18 5 6 12 43 16 82 l7 70 -42 7 c-41 6 -55 26 -29 42 17 11 126 21 240 23
76 1 100 -2 112 -15z"/>
<path d="M214 697 c-13 -39 -10 -465 3 -478 8 -8 86 -13 234 -17 l222 -5 -8
164 c-4 90 -10 206 -14 258 l-6 94 -212 3 -212 4 -7 -23z m306 -2 l115 0 6
-120 c4 -66 7 -174 8 -240 l1 -120 -207 3 c-114 2 -210 6 -213 8 -9 10 -12
187 -5 331 8 163 2 155 110 145 39 -3 122 -7 185 -7z"/>
<path d="M296 610 c-61 -67 -47 -139 35 -180 38 -20 39 -22 39 -71 l0 -50 73
3 72 3 3 47 c2 37 9 52 31 71 38 31 51 58 51 102 0 67 -88 115 -211 115 -53 0
-59 -2 -93 -40z m184 11 c81 -25 100 -44 100 -94 0 -34 -6 -46 -40 -78 -35
-34 -40 -44 -40 -84 l0 -46 -57 3 -58 3 -3 47 c-3 43 -6 49 -46 72 -48 28 -72
71 -60 108 4 13 23 38 42 55 43 39 73 42 162 14z"/>
<path d="M320 525 c9 -10 9 -15 1 -15 -6 0 -11 -5 -11 -11 0 -6 7 -9 15 -6 8
4 17 2 20 -3 4 -6 11 -10 16 -10 6 0 7 5 4 10 -4 6 -1 18 7 27 11 15 10 16 -9
11 -13 -4 -26 -2 -29 3 -3 5 -10 9 -16 9 -7 0 -6 -6 2 -15z"/>
<path d="M473 484 c-1 -18 2 -23 9 -16 6 6 17 8 24 5 9 -3 14 2 14 14 0 12 -8
19 -22 20 -18 2 -23 -3 -25 -23z"/>
<path d="M416 434 c-5 -12 -2 -15 11 -10 9 4 20 1 25 -6 6 -10 8 -9 8 3 0 9
-7 20 -16 23 -21 8 -21 8 -28 -10z"/>
<path d="M305 290 c-3 -5 -12 -7 -20 -3 -19 7 -19 -2 1 -21 17 -18 39 -22 29
-6 -4 6 -1 17 5 25 8 10 9 15 2 15 -6 0 -13 -4 -17 -10z"/>
<path d="M430 282 c-8 -4 -17 -16 -18 -26 -3 -16 -1 -18 11 -8 7 6 17 9 20 5
4 -3 7 3 7 15 0 12 -1 22 -2 21 -2 0 -10 -3 -18 -7z"/>
<path d="M554 274 c2 -6 0 -16 -5 -21 -6 -6 2 -10 21 -10 21 0 27 4 21 10 -7
7 -7 15 0 23 7 9 3 12 -16 10 -14 0 -23 -6 -21 -12z"/>
<path d="M1441 1115 c-39 -59 -68 -111 -65 -116 3 -5 20 -9 38 -9 30 0 32 -2
32 -37 -1 -21 3 -48 7 -60 8 -23 7 -23 -81 -23 l-90 0 -7 66 c-5 53 -10 67
-28 73 -13 5 -16 10 -9 15 17 10 -8 46 -31 46 -28 0 -52 -27 -38 -44 9 -10 7
-15 -8 -19 -14 -3 -21 -17 -26 -51 -4 -25 -5 -53 -1 -61 4 -12 -4 -15 -43 -15
-35 0 -51 -4 -55 -16 -10 -27 -7 -774 4 -774 5 0 7 -13 4 -30 -5 -25 -3 -30
13 -30 11 0 23 11 30 30 11 29 11 29 84 27 41 -1 165 2 275 7 l202 9 16 -32
c19 -36 40 -32 33 6 -3 18 0 27 12 30 14 4 16 39 13 376 -1 205 -5 378 -7 385
-2 6 -15 12 -27 12 -21 0 -23 4 -23 55 l0 55 33 0 c19 0 32 5 32 13 0 6 -23
56 -51 110 -45 88 -53 97 -78 97 -16 0 -42 3 -59 6 -30 6 -33 3 -101 -101z
m164 79 c13 -4 36 -38 63 -93 23 -47 42 -90 42 -95 0 -5 -21 -5 -47 0 -27 4
-99 7 -162 6 l-113 -2 18 27 c106 164 105 163 143 163 20 0 45 -3 56 -6z
m-385 -173 c0 -10 9 -21 20 -24 18 -5 20 -13 18 -69 l-2 -63 -3 58 -4 57 -44
0 -44 0 -4 -57 -3 -58 -2 62 c-2 54 1 62 18 68 11 3 20 15 20 26 0 10 7 19 15
19 8 0 15 -8 15 -19z m428 -54 c11 -22 11 -35 2 -57 -11 -27 -15 -28 -88 -32
-88 -6 -102 3 -102 62 0 53 14 61 100 58 71 -3 75 -4 88 -31z m-437 -20 c-1
-12 -15 -9 -19 4 -3 6 1 10 8 8 6 -3 11 -8 11 -12z m-21 -37 c0 -5 -4 -10 -10
-10 -5 0 -10 5 -10 10 0 6 5 10 10 10 6 0 10 -4 10 -10z m90 -55 c47 0 158 2
248 5 137 4 164 3 172 -10 6 -9 10 -163 10 -371 l0 -357 -107 -6 c-60 -3 -210
-9 -335 -12 l-228 -6 3 373 c1 206 6 380 11 387 5 9 24 10 74 5 37 -5 105 -8
152 -8z m404 -771 c3 -8 2 -12 -4 -9 -6 3 -10 10 -10 16 0 14 7 11 14 -7z
m-610 -18 c-3 -9 -10 -16 -15 -16 -6 0 -5 9 1 21 13 24 24 20 14 -5z"/>
<path d="M1160 812 l-45 -7 0 -77 c0 -42 5 -81 10 -87 13 -12 119 -14 306 -5
l147 7 6 36 c8 52 7 119 -2 125 -13 8 -374 15 -422 8z m318 -18 l92 -7 0 -64
c0 -42 -4 -65 -12 -68 -25 -9 -418 -13 -423 -4 -3 4 -8 37 -12 73 l-6 65 34 4
c59 7 232 7 327 1z"/>
<path d="M1336 713 c-4 -9 -2 -21 4 -27 13 -13 46 17 36 33 -11 16 -33 13 -40
-6z"/>
<path d="M1160 582 l-45 -7 -3 -61 c-2 -33 2 -73 8 -88 l10 -29 223 8 c122 4
223 8 225 10 9 8 13 153 5 158 -15 9 -371 16 -423 9z m328 -19 l82 -6 0 -63
c0 -35 -4 -65 -9 -68 -12 -8 -418 -12 -426 -5 -3 3 -8 36 -12 72 l-6 65 29 5
c48 7 254 7 342 0z"/>
<path d="M1336 483 c-4 -9 -2 -21 4 -27 13 -13 46 17 36 33 -11 16 -33 13 -40
-6z"/>
<path d="M1158 363 l-38 -4 0 -73 c0 -115 -12 -110 246 -100 l219 9 9 73 c5
44 5 77 0 82 -10 10 -374 21 -436 13z m377 -20 l47 -6 -5 -64 c-2 -35 -7 -66
-9 -68 -2 -3 -98 -6 -212 -7 -171 -1 -209 1 -217 13 -5 8 -9 40 -9 71 0 46 3
57 18 61 27 7 334 8 387 0z"/>
<path d="M1343 264 c-7 -18 11 -39 26 -30 17 11 13 46 -4 46 -9 0 -18 -7 -22
-16z"/>
<path d="M1027 1044 c-3 -3 -3 -12 -1 -19 3 -8 -9 -14 -39 -18 -25 -4 -56 -12
-71 -18 -35 -16 -67 -85 -73 -159 -5 -56 -4 -60 15 -60 18 0 22 8 28 58 6 48
13 63 44 95 37 37 90 51 90 25 0 -7 5 -20 10 -28 8 -12 14 -10 40 15 36 34 36
36 8 80 -22 33 -38 42 -51 29z"/>
</g>
</svg>
