<?xml version="1.0" standalone="no"?>
<!DOCTYPE svg PUBLIC "-//W3C//DTD SVG 20010904//EN"
 "http://www.w3.org/TR/2001/REC-SVG-20010904/DTD/svg10.dtd">
<svg version="1.0" xmlns="http://www.w3.org/2000/svg"
 width="138.000000pt" height="144.000000pt" viewBox="0 0 138.000000 144.000000"
 preserveAspectRatio="xMidYMid meet">

<g transform="translate(0.000000,144.000000) scale(0.100000,-0.100000)"
fill="#000000" stroke="none">
<path d="M534 1425 c-10 -8 -14 -15 -8 -15 6 0 17 7 24 15 16 19 9 19 -16 0z"/>
<path d="M1021 1394 c0 -11 3 -14 6 -6 3 7 2 16 -1 19 -3 4 -6 -2 -5 -13z"/>
<path d="M425 1310 c-3 -5 -1 -10 4 -10 6 0 11 5 11 10 0 6 -2 10 -4 10 -3 0
-8 -4 -11 -10z"/>
<path d="M284 976 c11 -9 24 -16 30 -16 12 0 7 5 -24 19 -24 11 -24 11 -6 -3z"/>
<path d="M807 983 c-4 -3 -7 -13 -7 -22 1 -13 3 -13 11 2 11 19 8 33 -4 20z"/>
<path d="M408 933 c7 -3 16 -2 19 1 4 3 -2 6 -13 5 -11 0 -14 -3 -6 -6z"/>
<path d="M725 899 c-4 -6 -5 -12 -2 -15 2 -3 7 2 10 11 7 17 1 20 -8 4z"/>
<path d="M1210 725 c13 -14 26 -25 28 -25 3 0 -5 11 -18 25 -13 14 -26 25 -28
25 -3 0 5 -11 18 -25z"/>
<path d="M710 670 c8 -5 20 -10 25 -10 6 0 3 5 -5 10 -8 5 -19 10 -25 10 -5 0
-3 -5 5 -10z"/>
<path d="M579 653 c12 -24 31 -39 31 -25 0 5 -10 17 -21 28 -22 19 -22 19 -10
-3z"/>
<path d="M610 666 c0 -2 8 -10 18 -17 15 -13 16 -12 3 4 -13 16 -21 21 -21 13z"/>
<path d="M763 642 c9 -10 17 -25 17 -32 0 -7 3 -11 6 -7 10 10 -6 45 -23 52
-15 5 -15 4 0 -13z"/>
<path d="M705 624 c14 -15 26 -41 26 -58 2 -30 2 -30 6 -3 4 27 -28 87 -47 87
-5 0 2 -12 15 -26z"/>
<path d="M1253 615 c0 -22 2 -30 4 -17 2 12 2 30 0 40 -3 9 -5 -1 -4 -23z"/>
<path d="M192 580 c0 -14 2 -19 5 -12 2 6 2 18 0 25 -3 6 -5 1 -5 -13z"/>
<path d="M561 565 c0 -21 20 -55 34 -55 5 0 1 8 -7 18 -9 9 -18 26 -21 37 l-5
20 -1 -20z"/>
<path d="M630 539 c0 -5 4 -8 10 -4 5 3 18 -11 29 -32 11 -21 20 -33 21 -28 0
16 -39 75 -50 75 -5 0 -10 -5 -10 -11z"/>
<path d="M1055 529 c-4 -6 -5 -12 -2 -15 2 -3 7 2 10 11 7 17 1 20 -8 4z"/>
<path d="M920 525 c0 -5 10 -21 21 -35 13 -17 17 -18 10 -5 -17 33 -31 51 -31
40z"/>
<path d="M704 509 c-3 -6 2 -18 12 -27 17 -16 17 -16 5 0 -7 9 -10 22 -6 28 3
5 4 10 1 10 -3 0 -8 -5 -12 -11z"/>
<path d="M60 491 c5 -11 15 -23 21 -27 6 -3 3 5 -6 20 -20 30 -30 35 -15 7z"/>
<path d="M160 485 c29 -31 31 -31 17 0 -7 14 -18 25 -26 25 -10 0 -7 -8 9 -25z"/>
<path d="M520 506 c0 -2 8 -10 18 -17 15 -13 16 -12 3 4 -13 16 -21 21 -21 13z"/>
<path d="M970 466 c0 -2 7 -9 15 -16 9 -7 15 -8 15 -2 0 5 -7 12 -15 16 -8 3
-15 4 -15 2z"/>
<path d="M600 410 c8 -5 22 -9 30 -9 10 0 8 3 -5 9 -27 12 -43 12 -25 0z"/>
<path d="M550 295 c28 -25 54 -45 58 -45 9 0 -91 89 -101 90 -4 0 15 -20 43
-45z"/>
<path d="M768 303 c11 -16 30 -37 43 -48 12 -11 5 1 -16 28 -43 52 -57 63 -27
20z"/>
<path d="M401 234 c0 -11 3 -14 6 -6 3 7 2 16 -1 19 -3 4 -6 -2 -5 -13z"/>
<path d="M410 206 c0 -13 108 -151 141 -181 l34 -30 -25 30 c-14 17 -30 35
-36 40 -6 6 -34 41 -62 79 -29 38 -52 66 -52 62z"/>
<path d="M772 145 c-29 -30 -52 -57 -52 -60 0 -7 27 19 75 73 54 60 38 52 -23
-13z"/>
<path d="M689 154 c-23 -25 -23 -26 -2 -13 13 7 25 19 27 26 8 19 2 16 -25
-13z"/>
<path d="M625 80 c-10 -11 -16 -22 -14 -24 2 -2 12 7 22 20 22 29 17 32 -8 4z"/>
<path d="M670 50 c-19 -16 -32 -31 -30 -33 3 -3 21 11 40 29 43 42 37 44 -10
4z"/>
</g>
</svg>
