<?xml version="1.0" standalone="no"?>
<!DOCTYPE svg PUBLIC "-//W3C//DTD SVG 20010904//EN"
 "http://www.w3.org/TR/2001/REC-SVG-20010904/DTD/svg10.dtd">
<svg version="1.0" xmlns="http://www.w3.org/2000/svg"
 width="135.000000pt" height="130.000000pt" viewBox="0 0 135.000000 130.000000"
 preserveAspectRatio="xMidYMid meet">

<g transform="translate(0.000000,130.000000) scale(0.100000,-0.100000)"
fill="#000000" stroke="none">
<path d="M146 1163 c8 -44 14 -55 14 -27 0 11 5 25 11 31 14 14 3 33 -17 33
-12 0 -13 -8 -8 -37z m24 17 c0 -5 -4 -10 -10 -10 -5 0 -10 5 -10 10 0 6 5 10
10 10 6 0 10 -4 10 -10z"/>
<path d="M1040 1186 c0 -8 6 -16 14 -19 10 -4 12 0 9 14 -6 22 -23 26 -23 5z"/>
<path d="M496 1183 c-3 -4 -6 -15 -6 -25 0 -24 33 -21 38 3 3 17 -21 33 -32
22z m24 -23 c0 -5 -4 -10 -10 -10 -5 0 -10 5 -10 10 0 6 5 10 10 10 6 0 10 -4
10 -10z"/>
<path d="M673 1171 c1 -14 9 -26 17 -28 12 -4 12 -3 2 5 -8 5 -13 12 -12 16 1
4 -1 12 -4 19 -3 6 -4 1 -3 -12z"/>
<path d="M796 1175 c-3 -8 -1 -15 3 -15 5 0 11 7 15 15 3 8 1 15 -3 15 -5 0
-11 -7 -15 -15z"/>
<path d="M890 1170 c0 -11 4 -20 9 -20 5 0 7 9 4 20 -3 11 -7 20 -9 20 -2 0
-4 -9 -4 -20z"/>
<path d="M930 1176 c0 -7 7 -13 15 -13 8 0 15 4 15 8 0 4 -7 9 -15 13 -9 3
-15 0 -15 -8z"/>
<path d="M556 1172 c-2 -4 -1 -14 3 -21 6 -9 10 -7 14 8 5 20 -7 29 -17 13z"/>
<path d="M730 1169 c0 -4 7 -9 15 -13 9 -3 15 0 15 8 0 7 -7 13 -15 13 -8 0
-15 -4 -15 -8z"/>
<path d="M840 1170 c0 -5 5 -10 11 -10 5 0 7 5 4 10 -3 6 -8 10 -11 10 -2 0
-4 -4 -4 -10z"/>
<path d="M1090 1170 c0 -5 5 -10 10 -10 6 0 10 5 10 10 0 6 -4 10 -10 10 -5 0
-10 -4 -10 -10z"/>
<path d="M357 1153 c-12 -11 -8 -23 8 -23 8 0 15 7 15 15 0 16 -12 20 -23 8z"/>
<path d="M290 1140 c0 -5 -7 -7 -15 -4 -8 4 -15 2 -15 -4 0 -14 33 -8 38 6 2
7 1 12 -2 12 -3 0 -6 -4 -6 -10z"/>
<path d="M204 1128 c4 -19 23 -20 30 -2 5 14 4 15 -8 5 -10 -8 -16 -9 -19 -1
-3 6 -4 5 -3 -2z"/>
<path d="M1179 1116 c-2 -2 -105 -6 -229 -10 -124 -3 -226 -5 -226 -6 -3 -1
-54 -81 -89 -139 l-38 -64 13 -393 c7 -217 11 -396 9 -398 -2 -2 -87 -7 -188
-10 -102 -4 -187 -9 -190 -12 -4 -4 71 -3 164 1 94 4 324 8 513 8 188 0 340 2
338 5 -3 2 -144 5 -313 6 l-308 1 -14 393 c-10 296 -10 397 -2 405 8 8 99 14
274 19 144 3 276 11 292 17 l30 11 -35 -5 c-19 -3 -109 -7 -200 -10 -91 -3
-208 -7 -261 -9 l-96 -3 21 34 c12 19 35 55 51 81 l30 47 105 6 c58 4 159 7
225 9 66 1 140 5 165 9 l45 8 -41 2 c-22 0 -43 -1 -45 -3z"/>
<path d="M575 1053 c6 -22 4 -23 -37 -17 -33 4 -53 0 -88 -18 -24 -13 -46 -30
-49 -38 -2 -8 10 -3 28 13 27 22 42 27 89 27 39 0 52 -3 42 -10 -20 -12 -6
-23 19 -15 25 8 26 21 5 55 -14 23 -14 23 -9 3z"/>
<path d="M142 938 c-7 -7 -12 -22 -12 -35 0 -22 1 -22 20 -6 21 18 26 38 12
47 -5 3 -14 0 -20 -6z m18 -18 c0 -5 -4 -10 -10 -10 -5 0 -10 5 -10 10 0 6 5
10 10 10 6 0 10 -4 10 -10z"/>
<path d="M243 918 c1 -16 5 -28 9 -28 10 0 9 9 -2 35 -8 17 -8 16 -7 -7z"/>
<path d="M328 915 c-3 -13 -2 -22 2 -20 11 7 20 45 10 45 -4 0 -10 -11 -12
-25z"/>
<path d="M363 924 c-3 -8 -1 -20 6 -27 8 -8 11 -4 11 16 0 30 -7 35 -17 11z"/>
<path d="M186 914 c-9 -24 -7 -31 4 -14 9 13 11 13 20 0 11 -17 13 -10 4 14
-3 9 -10 16 -14 16 -4 0 -11 -7 -14 -16z"/>
<path d="M286 914 c-4 -9 -4 -19 -1 -22 2 -3 7 3 11 12 4 9 4 19 1 22 -2 3 -7
-3 -11 -12z"/>
<path d="M357 866 c-3 -8 -2 -18 3 -21 13 -8 24 15 12 27 -6 6 -11 4 -15 -6z"/>
<path d="M260 850 c0 -12 7 -20 16 -20 14 0 15 2 3 17 -12 14 -12 16 0 8 10
-5 12 -4 7 3 -11 19 -26 14 -26 -8z"/>
<path d="M310 849 c0 -18 2 -19 15 -9 15 12 12 30 -6 30 -5 0 -9 -10 -9 -21z"/>
<path d="M140 836 c0 -18 5 -26 18 -25 10 0 12 3 5 6 -7 2 -13 12 -13 21 0 15
2 15 11 2 9 -12 10 -12 7 -1 -7 26 -28 24 -28 -3z"/>
<path d="M200 841 c0 -14 5 -19 15 -14 17 6 15 25 -3 31 -7 2 -12 -5 -12 -17z"/>
<path d="M1070 810 c-43 -7 -42 -8 12 -5 l57 3 4 -46 4 -47 -1 50 c-1 56 -3
57 -76 45z"/>
<path d="M707 803 c-11 -10 -8 -221 3 -228 6 -3 7 1 4 9 -5 14 4 16 57 14 l64
-1 -55 -7 -55 -7 59 -1 59 -2 -7 107 c-4 59 -10 111 -12 115 -6 10 -108 11
-117 1z m113 -30 c0 -16 3 -58 7 -95 l6 -68 -62 0 -61 0 0 88 c0 49 3 92 7 95
3 4 28 7 55 7 46 0 48 -1 48 -27z"/>
<path d="M866 802 c-3 -5 21 -6 53 -4 l58 4 6 -68 c13 -131 16 -124 -53 -124
l-59 0 -4 88 -3 87 -2 -95 -2 -95 67 1 68 2 -55 -8 -55 -7 58 -1 57 -2 0 38
c0 22 -3 73 -6 115 l-7 77 -58 0 c-32 0 -60 -4 -63 -8z"/>
<path d="M245 779 c-4 -6 -5 -12 -2 -15 2 -3 7 2 10 11 7 17 1 20 -8 4z"/>
<path d="M320 779 c0 -6 -7 -9 -15 -5 -11 4 -15 -1 -14 -17 0 -12 3 -16 6 -9
7 17 21 15 26 -5 3 -10 5 -3 6 15 0 17 -1 32 -4 32 -3 0 -5 -5 -5 -11z"/>
<path d="M1022 690 c3 -104 3 -105 28 -107 22 -2 23 -1 4 5 -20 6 -22 15 -23
102 -1 52 -4 97 -7 99 -3 3 -3 -42 -2 -99z"/>
<path d="M137 773 c-13 -12 -7 -31 11 -35 15 -4 18 -1 14 18 -4 24 -13 30 -25
17z"/>
<path d="M183 764 c-8 -21 13 -42 28 -27 13 13 5 43 -11 43 -6 0 -13 -7 -17
-16z m23 -21 c-10 -10 -19 5 -10 18 6 11 8 11 12 0 2 -7 1 -15 -2 -18z"/>
<path d="M346 764 c-8 -22 -8 -26 3 -20 5 4 12 0 14 -6 3 -7 6 -1 6 15 1 29
-13 37 -23 11z"/>
<path d="M1150 665 l0 -45 -47 -2 -48 -1 50 -7 c49 -6 49 -6 15 -11 l-35 -6
38 -1 37 -2 0 60 c0 33 -2 60 -5 60 -3 0 -5 -20 -5 -45z"/>
<path d="M137 543 c-3 -5 40 -7 95 -5 l99 3 -3 -43 c-3 -43 -3 -43 -48 -49
-44 -6 -44 -6 -8 -7 60 -3 68 4 68 59 l0 49 -99 0 c-55 0 -102 -3 -104 -7z"/>
<path d="M810 504 c6 -14 11 -42 11 -62 1 -20 3 -29 6 -18 7 26 -6 106 -17
106 -6 0 -5 -11 0 -26z"/>
<path d="M977 482 c7 -69 11 -74 12 -15 1 28 -3 54 -8 57 -5 3 -6 -16 -4 -42z"/>
<path d="M1020 415 l0 -116 68 3 67 3 1 60 c1 48 0 51 -3 13 l-4 -48 -60 0
-59 0 0 95 0 95 54 0 55 0 4 -47 4 -48 -1 50 -1 50 -62 3 -63 3 0 -116z m103
-102 c-18 -2 -48 -2 -65 0 -18 2 -4 4 32 4 36 0 50 -2 33 -4z"/>
<path d="M700 405 l0 -115 43 2 42 1 -40 5 c-32 3 -36 6 -20 12 17 7 17 9 3 9
-16 1 -18 12 -18 95 l0 95 43 4 42 4 -47 1 -48 2 0 -115z"/>
<path d="M862 408 l3 -113 38 -1 37 -1 -37 5 c-32 3 -35 6 -18 12 17 7 17 9 3
9 -16 1 -18 12 -18 95 l0 95 48 4 47 3 -53 2 -53 2 3 -112z"/>
<path d="M176 494 c-4 -9 -4 -19 -1 -22 2 -3 7 3 11 12 4 9 4 19 1 22 -2 3 -7
-3 -11 -12z"/>
<path d="M173 443 c21 -3 27 -10 28 -31 2 -24 2 -24 6 -4 2 12 9 22 14 22 6 0
7 5 4 10 -3 6 -23 9 -43 9 -30 -2 -32 -3 -9 -6z"/>
<path d="M992 384 c-1 -17 -5 -47 -8 -65 -5 -26 -4 -31 5 -23 8 7 11 32 8 65
-2 30 -4 40 -5 23z"/>
<path d="M210 231 l0 -150 -42 -4 -43 -4 48 -1 47 -2 0 155 c0 85 -2 155 -5
155 -3 0 -5 -67 -5 -149z"/>
<path d="M297 356 c-35 -33 -34 -37 8 -31 32 4 35 2 36 -23 l1 -27 7 25 c4 15
15 25 26 26 50 3 50 3 30 24 -34 33 -76 36 -108 6z"/>
<path d="M822 310 c0 -14 2 -19 5 -12 2 6 2 18 0 25 -3 6 -5 1 -5 -13z"/>
<path d="M116 277 c3 -10 9 -15 12 -12 3 3 0 11 -7 18 -10 9 -11 8 -5 -6z"/>
<path d="M351 238 c0 -16 -1 -31 0 -35 0 -4 -8 -10 -18 -14 -17 -7 -17 -8 0
-8 22 -1 30 18 24 56 l-4 28 -2 -27z"/>
<path d="M1054 235 c-4 -8 -15 -15 -25 -15 -11 0 -22 -7 -25 -15 -4 -8 -12
-15 -20 -15 -8 0 -14 -6 -14 -14 0 -8 -7 -17 -16 -20 -9 -4 -15 -9 -12 -11 9
-10 38 7 38 21 0 8 7 14 15 14 9 0 18 7 21 15 4 8 14 15 24 15 10 0 20 5 22
12 3 8 24 11 62 9 40 -2 56 1 51 8 -10 18 -115 14 -121 -4z"/>
<path d="M514 211 c5 -7 -13 -12 -56 -13 l-63 -2 55 -3 c30 -3 57 -9 61 -14 6
-11 39 -1 39 12 0 4 -10 13 -21 20 -15 8 -19 8 -15 0z"/>
<path d="M261 187 c-13 -21 -12 -21 5 -5 10 10 16 20 13 22 -3 3 -11 -5 -18
-17z"/>
<path d="M291 134 c0 -11 3 -14 6 -6 3 7 2 16 -1 19 -3 4 -6 -2 -5 -13z"/>
</g>
</svg>
