<?xml version="1.0" standalone="no"?>
<!DOCTYPE svg PUBLIC "-//W3C//DTD SVG 20010904//EN"
 "http://www.w3.org/TR/2001/REC-SVG-20010904/DTD/svg10.dtd">
<svg version="1.0" xmlns="http://www.w3.org/2000/svg"
 width="214.000000pt" height="169.000000pt" viewBox="0 0 214.000000 169.000000"
 preserveAspectRatio="xMidYMid meet">

<g transform="translate(0.000000,169.000000) scale(0.100000,-0.100000)"
fill="#000000" stroke="none">
<path d="M136 1492 l7 -119 -52 -5 c-94 -9 -91 0 -89 -317 1 -152 4 -227 5
-168 3 99 5 108 20 95 13 -10 68 -12 259 -10 134 1 253 6 266 11 l23 9 -3
-357 c-2 -200 -8 -361 -13 -367 -13 -16 -527 -8 -546 7 -10 9 -13 8 -13 -5 0
-9 7 -16 15 -16 7 0 18 -8 24 -17 8 -15 13 -16 30 -5 26 15 367 17 376 2 3 -5
15 -10 26 -10 10 0 19 5 19 10 0 6 16 10 35 10 26 0 39 6 51 25 15 23 16 52
10 287 -8 264 3 480 26 523 6 11 13 51 16 89 4 57 2 70 -12 78 -11 6 -16 23
-16 53 0 26 -5 47 -13 52 -8 4 -13 22 -13 38 l1 30 -70 5 -70 5 -11 82 c-5 46
-12 84 -15 86 -2 3 -66 7 -142 11 l-138 7 7 -119z m187 92 c43 -4 77 -10 77
-13 0 -3 -52 -5 -115 -3 l-115 3 0 -45 c0 -59 14 -94 42 -106 18 -7 19 -9 5
-9 -10 -1 -15 -5 -12 -11 4 -6 56 -9 128 -8 100 1 111 3 62 8 -33 4 -48 7 -32
8 20 2 31 10 39 30 l11 27 6 -25 c6 -23 13 -26 75 -32 71 -7 82 -11 72 -26 -9
-14 -212 -25 -315 -17 l-90 7 -5 52 c-3 28 -7 77 -9 109 l-4 57 52 0 c29 0 86
-3 128 -6z m65 -81 l3 -53 -90 0 c-80 0 -91 2 -91 18 0 13 -2 14 -9 4 -6 -10
-10 -4 -15 18 -14 73 -17 71 97 68 l102 -3 3 -52z m-45 -70 c-23 -2 -64 -2
-90 0 -26 2 -8 3 42 3 50 0 71 -1 48 -3z m77 -85 c155 4 160 2 160 -51 0 -31
-5 -45 -20 -55 -17 -10 -20 -23 -20 -93 0 -72 2 -81 20 -86 23 -6 26 -35 6
-56 -15 -15 -192 -27 -400 -27 -160 0 -156 -5 -156 173 0 94 5 150 13 167 17
33 57 40 182 32 55 -4 152 -6 215 -4z m160 -193 c0 -71 -2 -83 -15 -79 -26 10
-16 164 10 164 3 0 5 -38 5 -85z m35 65 c8 -12 -5 -130 -14 -130 -4 0 -8 32
-9 70 -3 64 6 87 23 60z"/>
<path d="M266 1521 c-3 -4 -3 -17 0 -28 7 -27 54 -29 54 -2 0 11 1 22 3 25 3
10 -52 14 -57 5z"/>
<path d="M1330 1463 c-65 -3 -88 -8 -97 -20 -16 -21 -19 -478 -3 -488 5 -3
159 -6 342 -7 l333 0 7 33 c4 19 8 130 10 248 2 199 1 214 -17 227 -15 11 -67
14 -254 12 -130 -1 -274 -4 -321 -5z m574 -20 c9 -6 0 -432 -10 -465 -5 -16
-22 -18 -165 -18 -149 0 -159 1 -144 16 11 11 13 20 6 27 -15 15 -41 0 -41
-23 0 -19 -6 -20 -160 -20 l-160 0 0 233 c0 127 4 238 8 244 6 10 82 13 297
16 283 3 351 1 369 -10z"/>
<path d="M1335 1411 c-33 -3 69 -6 227 -6 159 0 288 3 288 8 0 8 -424 7 -515
-2z"/>
<path d="M1858 1220 c3 -96 6 -177 8 -179 7 -8 2 243 -6 299 -4 31 -5 -23 -2
-120z"/>
<path d="M1272 1265 c0 -16 2 -22 5 -12 2 9 2 23 0 30 -3 6 -5 -1 -5 -18z"/>
<path d="M1485 1020 c110 -4 238 -4 285 0 58 5 -7 7 -200 7 l-285 0 200 -7z"/>
<path d="M891 1391 c-19 -19 -20 -23 -6 -62 19 -52 19 -59 0 -59 -8 0 -15 8
-15 18 0 10 -14 33 -31 51 -27 30 -34 33 -72 28 -23 -3 -46 -12 -52 -19 -5 -8
-19 -17 -29 -21 -15 -6 -17 -10 -8 -19 7 -7 12 -35 12 -62 1 -28 7 -62 14 -75
15 -27 10 -61 -11 -76 -17 -13 -30 -262 -14 -285 8 -11 29 -15 88 -14 43 1
142 3 220 4 l142 2 10 32 c5 17 13 77 17 132 6 91 4 104 -12 120 -17 17 -19
35 -19 149 l0 130 -40 19 c-22 11 -69 22 -106 24 -58 4 -70 1 -88 -17z m144
-1 c13 -6 -3 -7 -45 -3 -36 3 -67 7 -69 9 -9 8 95 2 114 -6z m-37 -51 c3 -34
1 -37 -29 -43 -52 -10 -58 -8 -68 32 -16 54 -16 53 42 50 52 -3 52 -3 55 -39z
m-187 11 c33 -18 21 -30 -30 -30 -54 0 -72 12 -44 29 23 13 49 14 74 1z m304
-12 c8 -31 0 -211 -9 -226 -10 -16 -43 -15 -49 1 -2 6 4 23 14 36 23 29 25 99
5 127 -8 10 -13 30 -10 44 4 25 4 25 -7 3 -18 -35 -49 -30 -49 7 0 29 1 30 50
30 43 0 50 -3 55 -22z m-391 -27 c4 -5 0 -12 -6 -14 -8 -3 -6 -6 5 -6 9 -1 17
4 17 9 0 12 70 13 89 1 17 -11 10 -123 -9 -146 -20 -24 -83 -19 -99 8 -20 30
-31 157 -14 157 6 0 14 -4 17 -9z m133 -48 c-3 -10 -5 -4 -5 12 0 17 2 24 5
18 2 -7 2 -21 0 -30z m213 -3 c13 -25 2 -100 -17 -107 -21 -8 -26 3 -13 27 18
33 4 68 -33 84 l-32 14 42 1 c32 1 45 -4 53 -19z m-100 0 c0 -5 -19 -10 -42
-10 -32 0 -39 3 -28 10 20 13 70 13 70 0z m56 -50 c1 -26 1 -28 -3 -7 -7 41
-35 36 -31 -5 2 -21 8 -32 16 -30 8 1 11 -2 7 -8 -3 -5 -30 -9 -58 -8 -44 1
-46 2 -14 5 33 4 38 7 35 26 -2 18 -11 23 -45 25 -65 5 -57 30 10 35 81 6 82
5 83 -33z m-169 -17 c-3 -10 -5 -2 -5 17 0 19 2 27 5 18 2 -10 2 -26 0 -35z
m150 5 c-3 -8 -6 -5 -6 6 -1 11 2 17 5 13 3 -3 4 -12 1 -19z m-124 -37 c3 -11
-2 -30 -11 -42 l-16 -23 -8 29 c-5 21 -3 32 10 41 9 8 18 14 18 14 1 0 4 -9 7
-19z m-53 -38 c0 -15 -11 -19 -55 -21 -43 -2 -55 0 -55 12 0 11 14 16 53 19
28 2 53 4 55 5 1 1 2 -6 2 -15z m210 -3 c10 -19 8 -20 -74 -20 -70 0 -84 3
-80 14 4 9 24 16 52 19 26 2 57 4 69 5 13 1 27 -6 33 -18z m89 -39 c9 -6 13
-27 13 -67 -2 -92 -13 -184 -24 -190 -5 -3 -101 -8 -212 -10 -173 -3 -206 -2
-216 11 -10 12 -11 44 -5 133 3 64 9 120 11 124 7 11 416 10 433 -1z"/>
<path d="M1020 1035 c0 -24 -5 -35 -15 -35 -8 0 -17 -14 -21 -37 -5 -29 -3
-39 12 -50 13 -10 18 -23 16 -46 -3 -21 0 -29 6 -22 12 12 22 225 10 225 -4 0
-8 -16 -8 -35z m0 -79 c0 -14 -4 -28 -10 -31 -6 -4 -10 7 -10 24 0 17 5 31 10
31 6 0 10 -11 10 -24z"/>
<path d="M1050 1035 c0 -33 2 -35 34 -35 26 0 36 5 41 20 9 28 -11 50 -46 50
-26 0 -29 -3 -29 -35z m60 0 c0 -9 -9 -15 -25 -15 -16 0 -25 6 -25 15 0 9 9
15 25 15 16 0 25 -6 25 -15z"/>
<path d="M725 997 c-4 -28 -5 -72 -3 -97 l3 -45 133 -3 133 -3 -18 27 c-17 26
-19 26 -96 21 -51 -3 -84 -11 -96 -21 -34 -31 -41 -20 -41 69 l0 85 114 0 c63
0 117 3 119 8 3 4 -50 8 -118 9 l-124 3 -6 -53z m230 -122 c0 -6 -37 -11 -85
-13 -89 -3 -101 8 -22 19 62 9 107 6 107 -6z"/>
<path d="M1047 974 c-4 -4 -7 -34 -7 -66 0 -54 2 -58 23 -58 36 0 45 12 48 70
4 55 4 55 -26 58 -17 2 -34 0 -38 -4z m53 -46 c0 -18 -4 -39 -9 -47 -5 -8 -8
3 -7 33 1 52 16 64 16 14z"/>
<path d="M1662 811 c-10 -6 -13 -65 -14 -265 l-1 -257 -38 -30 c-46 -37 -51
-64 -11 -72 28 -6 210 1 250 9 15 3 22 12 22 28 0 19 -8 27 -35 36 -19 6 -40
20 -45 31 -6 11 -9 92 -8 201 2 207 -6 282 -33 309 -20 20 -64 25 -87 10z m62
-12 c21 -10 42 -46 32 -56 -1 -2 -24 0 -49 3 -49 7 -61 26 -35 52 15 15 21 15
52 1z m41 -101 c3 -18 5 -111 3 -206 l-3 -174 -46 -4 -46 -3 -7 52 c-3 29 -6
123 -6 210 l0 157 50 0 c48 0 49 -1 55 -32z m0 -407 c-19 -19 -60 -22 -80 -7
-19 14 -16 15 35 16 33 0 50 -4 45 -9z m-54 -28 c15 -3 36 0 47 6 15 8 23 7
31 -3 6 -7 25 -16 41 -20 50 -9 37 -32 -22 -40 -70 -8 -213 -8 -221 1 -12 11
25 43 51 43 18 0 23 4 18 16 -5 13 -2 15 11 9 10 -4 30 -10 44 -12z"/>
<path d="M1737 552 c1 -92 3 -171 4 -177 5 -22 15 225 11 283 -9 119 -17 61
-15 -106z"/>
<path d="M1699 705 c-8 -13 2 -345 10 -345 3 0 5 53 3 117 -4 191 -7 239 -13
228z"/>
<path d="M1320 771 c-25 -3 -51 -10 -57 -14 -25 -16 -8 -462 18 -493 5 -6 7
-18 4 -26 -9 -23 27 -33 42 -12 10 14 26 16 97 12 79 -4 85 -3 88 15 2 14 12
21 32 23 44 5 48 16 17 50 l-29 30 -7 202 c-4 111 -10 204 -14 206 -14 9 -148
14 -191 7z m30 -34 c42 -3 41 -4 -12 -5 -32 -1 -58 -5 -58 -9 0 -5 29 -6 65
-5 46 3 65 8 65 17 0 9 -15 15 -42 18 -25 2 -8 4 38 5 88 2 115 -10 91 -40 -9
-11 -39 -17 -108 -21 -100 -6 -119 -1 -119 34 0 18 22 31 30 18 3 -4 26 -9 50
-12z m160 -56 c0 -15 -31 -23 -116 -28 -89 -6 -134 1 -134 20 0 9 34 13 125
15 70 1 125 -2 125 -7z m4 -171 c7 -132 6 -142 -13 -166 -22 -28 -27 -54 -11
-54 21 0 9 -18 -20 -30 -35 -15 -156 -8 -173 9 -13 13 -24 95 -33 248 l-7 121
103 1 c56 0 105 3 108 6 3 3 13 5 22 5 15 0 18 -18 24 -140z m38 -187 c26 -23
22 -33 -11 -33 -33 0 -46 13 -37 35 7 20 25 19 48 -2z m-232 -83 c0 -5 -4 -10
-10 -10 -5 0 -10 5 -10 10 0 6 5 10 10 10 6 0 10 -4 10 -10z"/>
<path d="M732 763 c-95 -6 -95 -6 -96 -280 -1 -225 -1 -225 23 -244 16 -13 27
-16 36 -9 16 14 393 6 408 -9 8 -8 15 -7 26 3 9 8 25 16 36 18 28 5 36 80 33
316 -2 157 -6 194 -18 202 -14 8 -312 10 -448 3z m289 -13 c27 0 29 -3 29 -36
0 -42 -23 -43 -28 -1 -2 15 -8 27 -13 27 -15 0 -10 -36 9 -59 16 -20 22 -21
87 -13 39 5 58 10 43 11 -25 1 -28 5 -28 36 0 31 3 35 25 35 43 0 48 -32 41
-265 -5 -181 -8 -212 -23 -222 -18 -14 -338 -18 -453 -6 l-62 6 3 228 c3 155
8 232 16 240 14 14 186 29 267 23 32 -2 72 -4 87 -4z m89 -35 c0 -28 -4 -35
-19 -35 -20 0 -31 18 -31 51 0 14 7 19 25 19 22 0 25 -4 25 -35z"/>
<path d="M811 624 c-74 -52 -65 -211 14 -248 39 -19 123 -21 159 -5 31 14 55
64 63 128 8 67 -1 92 -40 119 -42 28 -159 32 -196 6z m172 -10 c18 -9 35 -22
39 -28 11 -16 -32 -29 -49 -14 -8 6 -38 11 -66 11 -65 -1 -92 -28 -82 -83 11
-61 30 -80 78 -80 24 0 48 5 54 11 8 8 17 7 32 -3 l21 -15 -21 -19 c-28 -26
-124 -26 -163 0 -62 40 -70 154 -15 208 23 24 36 28 84 28 32 0 70 -7 88 -16z
m-23 -54 c12 -8 12 -10 -3 -16 -20 -7 -24 -80 -4 -87 22 -8 -41 -30 -68 -23
-43 11 -64 104 -27 125 21 13 82 14 102 1z m65 -97 c-3 -18 -9 -33 -12 -33 -4
0 -20 12 -35 27 -40 38 -37 64 10 84 l37 15 3 -30 c2 -16 1 -45 -3 -63z"/>
<path d="M1866 591 c-25 -43 -46 -85 -46 -94 0 -21 48 -77 66 -77 8 0 23 5 34
12 14 9 24 9 42 0 13 -6 38 -13 57 -14 44 -4 64 -32 36 -52 -19 -14 -19 -15
-2 -21 23 -10 22 -35 -3 -35 -21 0 -28 -16 -9 -22 16 -5 -1 -39 -20 -36 -11 2
-16 -4 -16 -22 0 -20 -5 -25 -22 -23 -15 2 -23 -3 -23 -12 0 -9 -7 -18 -15
-21 -8 -4 -15 -10 -15 -15 0 -10 31 0 45 15 6 6 19 16 30 22 26 14 84 122 85
157 0 33 -16 67 -40 84 -10 7 -21 24 -24 38 -4 15 -16 27 -32 31 -21 5 -24 11
-19 28 3 11 9 40 12 62 4 35 2 44 -18 58 -41 28 -54 20 -103 -63z m98 -38
c-12 -44 -9 -53 29 -66 19 -7 22 -24 7 -47 -7 -12 -12 -11 -30 5 -21 19 -23
19 -52 2 -30 -17 -32 -17 -54 4 -33 31 -30 60 14 133 l37 63 31 -26 c30 -25
31 -27 18 -68z"/>
</g>
</svg>
