<?xml version="1.0" standalone="no"?>
<!DOCTYPE svg PUBLIC "-//W3C//DTD SVG 20010904//EN"
 "http://www.w3.org/TR/2001/REC-SVG-20010904/DTD/svg10.dtd">
<svg version="1.0" xmlns="http://www.w3.org/2000/svg"
 width="196.000000pt" height="208.000000pt" viewBox="0 0 196.000000 208.000000"
 preserveAspectRatio="xMidYMid meet">

<g transform="translate(0.000000,208.000000) scale(0.100000,-0.100000)"
fill="#000000" stroke="none">
<path d="M918 2043 c6 -2 18 -2 25 0 6 3 1 5 -13 5 -14 0 -19 -2 -12 -5z"/>
<path d="M865 2030 c-3 -6 1 -7 9 -4 18 7 21 14 7 14 -6 0 -13 -4 -16 -10z"/>
<path d="M1038 2023 c7 -3 16 -2 19 1 4 3 -2 6 -13 5 -11 0 -14 -3 -6 -6z"/>
<path d="M1178 1993 c7 -3 16 -2 19 1 4 3 -2 6 -13 5 -11 0 -14 -3 -6 -6z"/>
<path d="M826 1950 c-9 -22 -16 -46 -16 -53 1 -6 10 10 20 37 11 28 18 51 16
53 -2 2 -11 -14 -20 -37z"/>
<path d="M1282 1930 c0 -14 2 -19 5 -12 2 6 2 18 0 25 -3 6 -5 1 -5 -13z"/>
<path d="M901 1924 c0 -11 3 -14 6 -6 3 7 2 16 -1 19 -3 4 -6 -2 -5 -13z"/>
<path d="M1073 1933 c9 -2 25 -2 35 0 9 3 1 5 -18 5 -19 0 -27 -2 -17 -5z"/>
<path d="M1168 1923 c7 -3 16 -2 19 1 4 3 -2 6 -13 5 -11 0 -14 -3 -6 -6z"/>
<path d="M1223 1914 c6 -11 -70 -229 -100 -287 -8 -16 -10 -26 -4 -22 14 8 31
49 82 189 29 82 36 113 28 120 -9 8 -10 8 -6 0z"/>
<path d="M1272 1870 c0 -14 2 -19 5 -12 2 6 2 18 0 25 -3 6 -5 1 -5 -13z"/>
<path d="M876 1844 c-4 -14 -5 -28 -3 -31 3 -2 8 8 11 23 4 14 5 28 3 31 -3 2
-8 -8 -11 -23z"/>
<path d="M1261 1824 c0 -11 3 -14 6 -6 3 7 2 16 -1 19 -3 4 -6 -2 -5 -13z"/>
<path d="M1106 1810 c4 -8 11 -30 15 -50 7 -35 7 -35 8 -4 0 16 -6 39 -15 50
-8 10 -12 12 -8 4z"/>
<path d="M861 1788 c0 -9 -4 -25 -7 -35 -5 -17 -5 -17 6 0 6 10 9 25 7 35 -4
15 -5 15 -6 0z"/>
<path d="M1056 1777 c3 -10 9 -15 12 -12 3 3 0 11 -7 18 -10 9 -11 8 -5 -6z"/>
<path d="M771 1744 c0 -11 3 -14 6 -6 3 7 2 16 -1 19 -3 4 -6 -2 -5 -13z"/>
<path d="M1021 1734 c0 -11 3 -14 6 -6 3 7 2 16 -1 19 -3 4 -6 -2 -5 -13z"/>
<path d="M1227 1721 c-3 -14 -1 -18 9 -14 8 3 22 -9 34 -29 11 -18 20 -28 20
-22 0 6 -13 28 -29 48 -25 31 -29 33 -34 17z"/>
<path d="M841 1723 c-1 -6 -4 -20 -7 -30 -5 -17 -5 -17 6 0 6 10 9 23 6 30 -3
9 -5 9 -5 0z"/>
<path d="M1101 1693 c-10 -26 -10 -27 4 -9 8 11 15 23 15 28 0 15 -7 8 -19
-19z"/>
<path d="M811 1624 c0 -11 3 -14 6 -6 3 7 2 16 -1 19 -3 4 -6 -2 -5 -13z"/>
<path d="M1290 1633 c0 -5 3 -13 7 -17 4 -4 6 -27 4 -52 -2 -31 1 -44 8 -40 7
4 11 -1 11 -13 0 -24 -16 -36 -23 -19 -3 7 -6 2 -6 -11 -1 -23 0 -23 18 -7 26
24 27 116 0 147 -10 12 -19 18 -19 12z m27 -70 c-3 -10 -5 -4 -5 12 0 17 2 24
5 18 2 -7 2 -21 0 -30z"/>
<path d="M1190 1604 c0 -8 5 -12 10 -9 6 3 10 -2 10 -11 0 -10 3 -15 6 -11 8
8 -5 47 -17 47 -5 0 -9 -7 -9 -16z"/>
<path d="M802 1580 c0 -14 2 -19 5 -12 2 6 2 18 0 25 -3 6 -5 1 -5 -13z"/>
<path d="M1022 1578 c-23 -23 -13 -55 31 -92 23 -20 50 -43 60 -51 14 -12 17
-12 17 -1 0 7 -13 19 -29 26 -43 18 -83 64 -79 91 4 34 37 35 97 4 28 -14 51
-23 51 -20 0 9 -99 55 -118 55 -10 0 -23 -5 -30 -12z"/>
<path d="M1176 1563 c-6 -14 -5 -15 5 -6 7 7 10 15 7 18 -3 3 -9 -2 -12 -12z"/>
<path d="M786 1519 c-8 -42 0 -50 9 -9 4 17 5 34 2 36 -2 3 -7 -10 -11 -27z"/>
<path d="M772 1435 c0 -16 2 -22 5 -12 2 9 2 23 0 30 -3 6 -5 -1 -5 -18z"/>
<path d="M1281 1424 c0 -11 3 -14 6 -6 3 7 2 16 -1 19 -3 4 -6 -2 -5 -13z"/>
<path d="M1038 1368 c-12 -34 -20 -44 -44 -49 l-29 -7 31 -1 c28 -1 33 3 49
45 9 25 15 47 12 50 -3 3 -11 -14 -19 -38z"/>
<path d="M1266 1374 c-4 -14 -5 -28 -3 -31 3 -2 8 8 11 23 4 14 5 28 3 31 -3
2 -8 -8 -11 -23z"/>
<path d="M778 1353 c6 -2 18 -2 25 0 6 3 1 5 -13 5 -14 0 -19 -2 -12 -5z"/>
<path d="M836 1340 c12 -5 43 -11 70 -14 48 -5 47 -5 -11 9 -67 16 -91 18 -59
5z"/>
<path d="M1091 1333 c0 -6 -4 -19 -8 -29 -4 -12 -3 -15 5 -10 7 4 12 3 12 -2
0 -6 8 -13 17 -16 15 -6 16 -5 1 11 -9 10 -18 27 -21 38 -2 11 -5 15 -6 8z"/>
<path d="M720 1298 c27 -29 50 -41 98 -53 34 -9 70 -14 80 -12 14 4 13 5 -3 6
-57 3 -143 34 -175 64 l-35 32 35 -37z"/>
<path d="M1053 1253 c-12 -13 -19 -23 -14 -23 10 0 46 39 40 43 -2 2 -14 -7
-26 -20z"/>
<path d="M690 1198 c-10 -24 -21 -56 -24 -73 -4 -20 -1 -15 10 13 14 38 19 43
40 38 21 -6 24 -3 24 24 0 21 4 29 11 24 8 -4 10 -30 6 -78 -3 -43 -2 -61 3
-46 12 39 11 115 -2 128 -24 24 -49 13 -68 -30z m40 12 c0 -11 -4 -20 -8 -20
-4 0 -8 9 -8 20 0 11 4 20 8 20 4 0 8 -9 8 -20z"/>
<path d="M948 1223 c12 -2 30 -2 40 0 9 3 -1 5 -23 4 -22 0 -30 -2 -17 -4z"/>
<path d="M651 1074 c0 -11 3 -14 6 -6 3 7 2 16 -1 19 -3 4 -6 -2 -5 -13z"/>
<path d="M470 1027 c113 -57 245 -151 235 -167 -3 -4 2 -7 11 -6 9 0 25 -15
35 -34 10 -19 19 -27 19 -18 0 26 -41 69 -129 131 -77 56 -205 127 -226 127
-5 -1 19 -15 55 -33z"/>
<path d="M361 1029 c-1 -9 16 -32 37 -51 56 -51 173 -201 167 -216 -3 -7 -1
-11 4 -8 5 3 25 -15 45 -41 l37 -47 -53 -28 c-29 -15 -49 -27 -45 -28 4 0 30
11 58 25 54 28 54 27 6 88 -25 33 -27 40 -16 55 12 15 12 16 -2 5 -13 -10 -26
2 -88 81 -39 51 -85 103 -102 115 -17 12 -34 32 -39 44 -6 16 -9 17 -9 6z"/>
<path d="M1210 969 c-7 -11 -10 -23 -7 -25 2 -2 9 7 15 21 14 30 7 33 -8 4z"/>
<path d="M1602 940 c0 -19 2 -27 5 -17 2 9 2 25 0 35 -3 9 -5 1 -5 -18z"/>
<path d="M1250 958 c0 -2 -14 -71 -31 -152 -16 -82 -28 -158 -26 -170 4 -18 4
-18 6 4 1 14 15 90 31 169 17 79 28 147 25 149 -3 3 -5 3 -5 0z"/>
<path d="M341 934 c0 -11 3 -14 6 -6 3 7 2 16 -1 19 -3 4 -6 -2 -5 -13z"/>
<path d="M1506 874 c-4 -31 -5 -59 -2 -61 2 -3 8 21 11 52 4 31 5 58 3 61 -3
2 -8 -21 -12 -52z"/>
<path d="M326 874 c-4 -20 -5 -38 -3 -40 3 -3 8 11 11 32 4 20 5 38 3 40 -3 3
-8 -11 -11 -32z"/>
<path d="M1592 880 c0 -14 2 -19 5 -12 2 6 2 18 0 25 -3 6 -5 1 -5 -13z"/>
<path d="M1349 863 c-13 -16 -12 -17 3 -5 14 11 17 10 21 -5 4 -14 5 -13 6 5
1 26 -11 29 -30 5z"/>
<path d="M1170 835 c0 -14 2 -25 4 -25 2 0 6 11 8 25 3 14 1 25 -3 25 -5 0 -9
-11 -9 -25z"/>
<path d="M1650 815 c0 -27 3 -45 7 -41 7 7 5 77 -3 85 -2 2 -4 -17 -4 -44z"/>
<path d="M669 833 c-13 -16 -12 -17 4 -4 9 7 17 15 17 17 0 8 -8 3 -21 -13z"/>
<path d="M1581 824 c0 -11 3 -14 6 -6 3 7 2 16 -1 19 -3 4 -6 -2 -5 -13z"/>
<path d="M312 800 c0 -14 2 -19 5 -12 2 6 2 18 0 25 -3 6 -5 1 -5 -13z"/>
<path d="M629 803 c-13 -16 -12 -17 4 -4 9 7 17 15 17 17 0 8 -8 3 -21 -13z"/>
<path d="M1251 768 c-15 -43 -8 -45 11 -3 8 19 12 35 8 35 -5 0 -13 -14 -19
-32z"/>
<path d="M1561 759 c-7 -22 -11 -43 -8 -45 2 -2 9 14 16 37 7 22 11 43 8 45
-2 2 -9 -14 -16 -37z"/>
<path d="M1162 760 c0 -19 2 -27 5 -17 2 9 2 25 0 35 -3 9 -5 1 -5 -18z"/>
<path d="M1420 765 c0 -8 2 -15 4 -15 2 0 6 7 10 15 3 8 1 15 -4 15 -6 0 -10
-7 -10 -15z"/>
<path d="M295 730 c-4 -23 -5 -43 -2 -46 2 -3 7 14 11 37 4 23 5 44 2 46 -2 2
-7 -14 -11 -37z"/>
<path d="M1383 755 c0 -8 4 -15 9 -15 4 0 8 7 8 15 0 8 -4 15 -8 15 -5 0 -9
-7 -9 -15z"/>
<path d="M1455 750 c-3 -5 -1 -10 4 -10 6 0 11 5 11 10 0 6 -2 10 -4 10 -3 0
-8 -4 -11 -10z"/>
<path d="M1642 740 c0 -14 2 -19 5 -12 2 6 2 18 0 25 -3 6 -5 1 -5 -13z"/>
<path d="M1152 690 c0 -14 2 -19 5 -12 2 6 2 18 0 25 -3 6 -5 1 -5 -13z"/>
<path d="M1414 696 c-3 -8 -4 -23 -2 -33 3 -11 6 -6 9 15 6 34 2 42 -7 18z"/>
<path d="M1626 695 c-9 -26 -7 -32 5 -12 6 10 9 21 6 23 -2 3 -7 -2 -11 -11z"/>
<path d="M1681 700 c-1 -8 -12 -39 -26 -67 -13 -29 -22 -53 -19 -53 10 0 56
110 51 123 -4 8 -6 7 -6 -3z"/>
<path d="M1522 673 c6 -7 14 -13 19 -13 5 0 9 6 9 13 0 7 -9 13 -19 13 -15 0
-17 -3 -9 -13z"/>
<path d="M279 622 c-7 -63 2 -72 69 -70 l57 1 -55 6 -55 6 -5 50 -6 50 -5 -43z"/>
<path d="M1369 637 c26 -28 31 -32 31 -19 0 4 -13 16 -28 26 l-27 19 24 -26z"/>
<path d="M1141 634 c0 -11 3 -14 6 -6 3 7 2 16 -1 19 -3 4 -6 -2 -5 -13z"/>
<path d="M1566 605 c4 -16 11 -37 15 -45 6 -10 7 -4 3 15 -4 17 -11 37 -15 45
-6 10 -7 4 -3 -15z"/>
<path d="M1431 589 c1 -18 3 -26 6 -16 6 24 18 21 42 -9 12 -15 21 -22 21 -17
0 5 -16 24 -35 43 l-35 34 1 -35z"/>
<path d="M500 590 c-8 -5 -10 -10 -5 -10 6 0 17 5 25 10 8 5 11 10 5 10 -5 0
-17 -5 -25 -10z"/>
<path d="M1133 565 c0 -22 2 -30 4 -17 2 12 2 30 0 40 -3 9 -5 -1 -4 -23z"/>
<path d="M430 570 c-20 -6 -21 -8 -5 -8 11 0 29 3 40 8 25 11 -1 11 -35 0z"/>
<path d="M1176 565 c-3 -9 -6 -26 -5 -38 1 -14 4 -9 9 13 9 37 7 52 -4 25z"/>
<path d="M1659 536 c-9 -20 -7 -31 16 -70 15 -25 29 -46 32 -46 3 0 -7 21 -22
46 -23 39 -25 50 -16 70 6 13 8 24 6 24 -3 0 -10 -11 -16 -24z"/>
<path d="M1250 543 c1 -12 38 -58 43 -53 3 3 -6 18 -19 33 -13 15 -24 24 -24
20z"/>
<path d="M1421 534 c0 -11 3 -14 6 -6 3 7 2 16 -1 19 -3 4 -6 -2 -5 -13z"/>
<path d="M1411 494 c0 -11 3 -14 6 -6 3 7 2 16 -1 19 -3 4 -6 -2 -5 -13z"/>
<path d="M224 478 l-19 -23 25 20 c14 11 27 21 29 22 2 2 0 3 -6 3 -5 0 -18
-10 -29 -22z"/>
<path d="M1121 437 c-1 -43 3 -53 33 -83 19 -19 40 -34 48 -34 7 0 -1 9 -18
19 -41 25 -47 36 -55 96 l-6 50 -2 -48z"/>
<path d="M1162 434 c-2 -35 1 -43 20 -47 28 -8 36 -1 9 8 -14 4 -21 17 -24 43
l-4 37 -1 -41z"/>
<path d="M350 431 c-16 -31 -12 -59 11 -71 11 -7 23 -9 26 -7 2 3 -5 8 -16 12
-41 13 -17 81 26 73 10 -2 23 -14 30 -28 8 -16 13 -19 13 -9 0 42 -71 65 -90
30z"/>
<path d="M466 428 c-18 -25 -21 -54 -7 -62 4 -3 6 5 4 18 -3 16 2 31 16 45 12
12 17 21 12 21 -6 0 -17 -10 -25 -22z"/>
<path d="M520 425 c7 -9 15 -13 17 -11 7 7 -7 26 -19 26 -6 0 -6 -6 2 -15z"/>
<path d="M682 420 c0 -14 2 -19 5 -12 2 6 2 18 0 25 -3 6 -5 1 -5 -13z"/>
<path d="M250 426 c0 -2 13 -6 29 -8 17 -2 28 -1 25 4 -5 8 -54 12 -54 4z"/>
<path d="M757 423 c-13 -23 -16 -63 -6 -63 7 0 10 3 7 6 -4 3 -2 19 2 35 8 27
6 38 -3 22z"/>
<path d="M577 413 c-9 -9 -9 -41 1 -46 4 -3 7 8 7 24 0 16 0 29 -1 29 0 0 -4
-3 -7 -7z"/>
<path d="M1391 394 c0 -11 3 -14 6 -6 3 7 2 16 -1 19 -3 4 -6 -2 -5 -13z"/>
<path d="M616 389 c3 -6 0 -16 -7 -21 -12 -8 -11 -9 1 -5 18 4 27 37 10 37 -6
0 -8 -5 -4 -11z"/>
<path d="M1779 385 c17 -33 31 -51 31 -40 0 6 -10 21 -21 35 -13 17 -17 18
-10 5z"/>
<path d="M260 380 c-9 -6 -10 -10 -3 -10 6 0 15 5 18 10 8 12 4 12 -15 0z"/>
<path d="M673 376 c1 -11 9 -21 17 -23 10 -3 11 -2 4 4 -6 4 -14 15 -17 23 -5
11 -6 9 -4 -4z"/>
<path d="M1485 348 c14 -24 31 -55 38 -70 6 -16 15 -28 20 -28 10 0 11 -3 -38
78 -21 34 -40 62 -42 62 -3 0 7 -19 22 -42z"/>
<path d="M1228 373 c7 -3 16 -2 19 1 4 3 -2 6 -13 5 -11 0 -14 -3 -6 -6z"/>
<path d="M293 305 c-3 -9 -3 -19 1 -22 3 -4 6 1 6 10 0 10 5 17 10 17 15 0 12
-26 -5 -40 -8 -7 -15 -9 -15 -4 0 5 -5 2 -10 -6 -5 -8 -9 -22 -9 -30 0 -12 2
-13 6 -1 3 8 17 24 31 36 16 14 23 28 19 38 -8 21 -26 22 -34 2z"/>
<path d="M371 284 c0 -11 3 -14 6 -6 3 7 2 16 -1 19 -3 4 -6 -2 -5 -13z"/>
<path d="M590 286 c0 -4 8 -18 18 -31 l19 -23 17 31 18 32 -20 -24 -19 -24
-17 24 c-9 13 -16 20 -16 15z"/>
<path d="M484 235 c-15 -20 -24 -38 -20 -42 3 -3 6 -1 6 5 0 16 57 15 63 0 3
-7 6 -1 6 14 1 31 -8 58 -20 58 -4 0 -20 -16 -35 -35z m42 -4 c-8 -13 -36 -15
-36 -3 0 4 5 13 12 20 14 14 34 0 24 -17z"/>
<path d="M362 240 c0 -14 2 -19 5 -12 2 6 2 18 0 25 -3 6 -5 1 -5 -13z"/>
<path d="M1511 235 c0 -5 6 -21 14 -35 8 -14 14 -20 14 -15 0 6 -6 21 -14 35
-8 14 -14 21 -14 15z"/>
<path d="M611 204 c0 -11 3 -14 6 -6 3 7 2 16 -1 19 -3 4 -6 -2 -5 -13z"/>
<path d="M350 200 c0 -5 5 -10 11 -10 5 0 7 5 4 10 -3 6 -8 10 -11 10 -2 0 -4
-4 -4 -10z"/>
<path d="M398 183 c7 -3 16 -2 19 1 4 3 -2 6 -13 5 -11 0 -14 -3 -6 -6z"/>
<path d="M1541 165 c0 -5 6 -21 14 -35 8 -14 14 -20 14 -15 0 6 -6 21 -14 35
-8 14 -14 21 -14 15z"/>
</g>
</svg>
