<?xml version="1.0" standalone="no"?>
<!DOCTYPE svg PUBLIC "-//W3C//DTD SVG 20010904//EN"
 "http://www.w3.org/TR/2001/REC-SVG-20010904/DTD/svg10.dtd">
<svg version="1.0" xmlns="http://www.w3.org/2000/svg"
 width="207.000000pt" height="196.000000pt" viewBox="0 0 207.000000 196.000000"
 preserveAspectRatio="xMidYMid meet">

<g transform="translate(0.000000,196.000000) scale(0.100000,-0.100000)"
fill="#000000" stroke="none">
<path d="M390 1855 c0 -8 9 -10 25 -7 14 2 25 6 25 7 0 1 -11 5 -25 7 -16 3
-25 1 -25 -7z"/>
<path d="M530 1816 c0 -2 7 -7 16 -10 8 -3 12 -2 9 4 -6 10 -25 14 -25 6z"/>
<path d="M820 1809 c0 -5 5 -7 10 -4 6 3 10 8 10 11 0 2 -4 4 -10 4 -5 0 -10
-5 -10 -11z"/>
<path d="M768 1803 c6 -2 18 -2 25 0 6 3 1 5 -13 5 -14 0 -19 -2 -12 -5z"/>
<path d="M573 1793 c4 -3 1 -13 -6 -22 -11 -14 -10 -14 5 -2 16 12 16 31 1 31
-4 0 -3 -3 0 -7z"/>
<path d="M650 1786 c0 -2 7 -9 15 -16 13 -11 14 -10 9 4 -5 14 -24 23 -24 12z"/>
<path d="M1000 1702 l5 -77 3 69 c2 38 -1 73 -5 77 -4 4 -6 -27 -3 -69z"/>
<path d="M862 1680 c0 -14 2 -19 5 -12 2 6 2 18 0 25 -3 6 -5 1 -5 -13z"/>
<path d="M256 1658 c-5 -14 -22 -239 -32 -413 -5 -92 -4 -113 9 -123 10 -9 47
-12 123 -9 l109 3 -111 2 -112 2 -5 27 c-3 15 -1 86 4 157 5 72 11 178 15 236
3 58 7 111 9 118 3 6 2 12 -1 12 -2 0 -6 -6 -8 -12z"/>
<path d="M338 1545 c-19 -260 -21 -325 -9 -325 7 0 9 5 6 10 -4 6 -1 86 5 178
7 92 10 183 8 202 -2 19 -7 -10 -10 -65z"/>
<path d="M1680 1588 c-12 -24 -32 -58 -42 -75 -11 -18 -17 -33 -14 -33 3 0 21
28 42 63 45 78 40 74 66 51 21 -17 21 -16 -1 9 -14 15 -25 27 -26 27 -1 0 -12
-19 -25 -42z"/>
<path d="M910 1595 c0 -8 5 -15 10 -15 6 0 10 7 10 15 0 8 -4 15 -10 15 -5 0
-10 -7 -10 -15z"/>
<path d="M851 1584 c0 -11 3 -14 6 -6 3 7 2 16 -1 19 -3 4 -6 -2 -5 -13z"/>
<path d="M1776 1535 c13 -17 51 -78 84 -136 33 -57 60 -97 60 -89 0 8 -7 23
-15 34 -13 17 -11 24 11 62 l26 44 -21 33 c-25 41 -59 72 -68 64 -3 -4 -1 -7
5 -7 6 0 25 -20 42 -45 29 -43 30 -46 15 -74 -23 -45 -32 -45 -54 -4 -11 21
-34 58 -50 83 -27 40 -29 46 -13 51 12 4 8 7 -15 11 l-31 4 24 -31z"/>
<path d="M2036 1551 c-4 -5 3 -7 14 -4 23 6 26 13 6 13 -8 0 -17 -4 -20 -9z"/>
<path d="M842 1500 c0 -19 2 -27 5 -17 2 9 2 25 0 35 -3 9 -5 1 -5 -18z"/>
<path d="M912 1500 c0 -19 2 -27 5 -17 2 9 2 25 0 35 -3 9 -5 1 -5 -18z"/>
<path d="M992 1460 c0 -14 2 -19 5 -12 2 6 2 18 0 25 -3 6 -5 1 -5 -13z"/>
<path d="M832 1425 c-1 -22 -5 -51 -7 -65 l-6 -25 11 25 c6 13 9 42 7 65 l-4
40 -1 -40z"/>
<path d="M902 1430 c0 -14 2 -19 5 -12 2 6 2 18 0 25 -3 6 -5 1 -5 -13z"/>
<path d="M1569 1413 l-24 -28 28 24 c25 23 32 31 24 31 -2 0 -14 -12 -28 -27z"/>
<path d="M982 1395 c0 -16 2 -22 5 -12 2 9 2 23 0 30 -3 6 -5 -1 -5 -18z"/>
<path d="M1628 1356 c17 -20 32 -47 33 -59 0 -14 3 -17 6 -8 8 19 -22 73 -50
90 -16 10 -13 4 11 -23z"/>
<path d="M929 1363 c-13 -16 -12 -17 4 -4 9 7 17 15 17 17 0 8 -8 3 -21 -13z"/>
<path d="M891 1354 c0 -11 3 -14 6 -6 3 7 2 16 -1 19 -3 4 -6 -2 -5 -13z"/>
<path d="M2038 1363 c6 -2 18 -2 25 0 6 3 1 5 -13 5 -14 0 -19 -2 -12 -5z"/>
<path d="M1430 1333 c0 -5 10 -18 23 -29 l22 -19 -20 25 c-11 14 -21 27 -22
29 -2 2 -3 0 -3 -6z"/>
<path d="M1146 1284 c-9 -8 -16 -25 -15 -37 1 -20 2 -20 8 3 4 14 13 24 18 23
6 -1 14 4 17 12 7 20 -8 19 -28 -1z"/>
<path d="M1808 1283 c7 -3 16 -2 19 1 4 3 -2 6 -13 5 -11 0 -14 -3 -6 -6z"/>
<path d="M970 1270 c0 -5 7 -7 15 -4 8 4 15 8 15 10 0 2 -7 4 -15 4 -8 0 -15
-4 -15 -10z"/>
<path d="M1486 1260 c6 -8 16 -24 22 -35 6 -11 12 -15 12 -8 0 7 -10 22 -22
35 -13 13 -18 17 -12 8z"/>
<path d="M832 1250 c0 -14 2 -19 5 -12 2 6 2 18 0 25 -3 6 -5 1 -5 -13z"/>
<path d="M883 1249 c-1 -10 2 -19 8 -19 11 0 12 27 1 34 -4 2 -9 -4 -9 -15z"/>
<path d="M1687 1264 c-3 -4 -2 -15 4 -25 11 -22 0 -25 -20 -6 -8 6 -1 -8 15
-32 l28 -43 -29 -24 c-24 -19 -32 -21 -45 -11 -13 10 -13 10 -2 -5 13 -16 16
-16 48 5 26 17 33 27 28 42 -3 11 -7 32 -9 47 -2 14 -6 31 -9 36 -3 6 0 13 6
15 7 3 8 6 2 6 -6 1 -14 -2 -17 -5z"/>
<path d="M1610 1240 c-8 -5 -10 -10 -5 -10 6 0 17 5 25 10 8 5 11 10 5 10 -5
0 -17 -5 -25 -10z"/>
<path d="M937 1233 c-10 -9 -9 -23 1 -23 5 0 9 7 9 15 0 17 -1 18 -10 8z"/>
<path d="M970 1225 c-7 -9 -8 -15 -2 -15 5 0 12 7 16 15 3 8 4 15 2 15 -2 0
-9 -7 -16 -15z"/>
<path d="M1010 1229 c0 -5 5 -7 10 -4 6 3 10 8 10 11 0 2 -4 4 -10 4 -5 0 -10
-5 -10 -11z"/>
<path d="M1580 1226 c0 -11 40 -86 45 -86 3 0 -4 19 -16 43 -23 45 -29 54 -29
43z"/>
<path d="M368 1213 c12 -2 32 -2 45 0 12 2 2 4 -23 4 -25 0 -35 -2 -22 -4z"/>
<path d="M878 1192 c-2 -15 -1 -38 3 -52 5 -18 7 -10 8 28 1 56 -4 69 -11 24z"/>
<path d="M518 1203 c46 -2 118 -2 160 0 42 1 5 3 -83 3 -88 0 -123 -2 -77 -3z"/>
<path d="M1090 1176 c0 -19 3 -37 8 -40 4 -2 6 13 4 35 -5 48 -12 51 -12 5z"/>
<path d="M993 1185 c-3 -9 -3 -18 -1 -21 3 -3 8 4 11 16 6 23 -1 27 -10 5z"/>
<path d="M1025 1191 c-3 -5 0 -13 6 -17 7 -4 9 -3 5 4 -3 5 0 13 6 15 9 4 10
6 1 6 -6 1 -14 -3 -18 -8z"/>
<path d="M915 1181 c-3 -5 -2 -12 3 -15 5 -3 9 1 9 9 0 17 -3 19 -12 6z"/>
<path d="M950 1180 c0 -5 7 -7 15 -4 8 4 15 8 15 10 0 2 -7 4 -15 4 -8 0 -15
-4 -15 -10z"/>
<path d="M583 1173 c9 -2 25 -2 35 0 9 3 1 5 -18 5 -19 0 -27 -2 -17 -5z"/>
<path d="M661 1164 c0 -11 3 -14 6 -6 3 7 2 16 -1 19 -3 4 -6 -2 -5 -13z"/>
<path d="M583 1143 c9 -2 23 -2 30 0 6 3 -1 5 -18 5 -16 0 -22 -2 -12 -5z"/>
<path d="M955 1139 c-4 -6 -5 -13 -2 -16 7 -7 27 6 27 18 0 12 -17 12 -25 -2z"/>
<path d="M623 1113 c26 -2 68 -2 95 0 26 2 4 3 -48 3 -52 0 -74 -1 -47 -3z"/>
<path d="M523 1103 c9 -2 23 -2 30 0 6 3 -1 5 -18 5 -16 0 -22 -2 -12 -5z"/>
<path d="M350 941 c-30 -5 -4 -7 78 -7 94 1 125 -2 131 -13 10 -16 2 -216 -10
-248 -4 -12 -19 -23 -34 -26 -24 -4 -24 -4 2 -3 40 2 53 38 60 164 5 95 4 109
-12 122 -20 17 -139 23 -215 11z"/>
<path d="M808 933 c12 -2 30 -2 40 0 9 3 -1 5 -23 4 -22 0 -30 -2 -17 -4z"/>
<path d="M275 920 c-3 -6 1 -7 9 -4 18 7 21 14 7 14 -6 0 -13 -4 -16 -10z"/>
<path d="M1082 919 c20 -6 44 -19 54 -30 21 -24 29 -108 16 -168 -8 -31 -7
-40 1 -32 6 6 13 48 15 94 4 76 2 85 -19 110 -17 19 -37 29 -64 32 l-40 5 37
-11z"/>
<path d="M732 908 c-43 -55 -61 -156 -40 -228 12 -37 20 -47 48 -57 40 -14
216 -16 275 -3 26 5 -1 7 -80 3 -66 -2 -140 0 -165 4 -57 11 -73 40 -72 135 1
54 6 79 26 114 24 44 28 56 8 32z"/>
<path d="M458 898 c12 -6 22 -19 22 -29 0 -10 -9 -19 -22 -22 -20 -4 -19 -4 5
-6 22 -1 27 3 27 24 0 22 -25 46 -47 44 -4 0 2 -5 15 -11z"/>
<path d="M387 888 c-20 -16 -37 -61 -36 -96 1 -19 4 -14 10 17 9 48 23 69 54
81 14 6 15 9 4 9 -8 1 -23 -5 -32 -11z"/>
<path d="M886 844 c-3 -9 -6 -45 -6 -80 0 -54 3 -64 18 -64 14 0 14 2 3 9 -11
7 -13 23 -8 72 4 34 9 64 11 66 8 8 141 -63 139 -74 -2 -7 4 -10 12 -7 23 9 9
22 -65 59 -77 39 -95 42 -104 19z"/>
<path d="M407 833 c-9 -9 -9 -43 1 -43 4 0 7 11 7 25 0 14 0 25 -1 25 0 0 -4
-3 -7 -7z"/>
<path d="M262 770 c0 -19 2 -27 5 -17 2 9 2 25 0 35 -3 9 -5 1 -5 -18z"/>
<path d="M434 780 c0 -11 4 -20 8 -20 4 0 8 9 8 20 0 11 -4 20 -8 20 -4 0 -8
-9 -8 -20z"/>
<path d="M394 743 c-3 -16 -8 -35 -10 -43 -3 -8 -2 -11 2 -7 13 13 32 77 23
77 -5 0 -11 -12 -15 -27z"/>
<path d="M341 728 c-1 -30 3 -38 17 -38 11 0 13 3 5 8 -6 4 -13 21 -16 37 -4
27 -4 27 -6 -7z"/>
<path d="M965 735 c-25 -12 -26 -14 -5 -9 28 7 60 23 45 23 -5 0 -23 -6 -40
-14z"/>
<path d="M251 694 c0 -17 5 -36 12 -42 14 -12 218 -21 210 -9 -2 4 -46 7 -97
7 -99 0 -110 5 -119 50 -4 22 -4 21 -6 -6z"/>
<path d="M1365 649 c-62 -51 -92 -98 -100 -160 -10 -71 18 -127 78 -159 l47
-25 -7 -69 c-4 -44 -3 -67 4 -63 5 3 11 32 12 63 1 32 4 61 7 65 2 4 -20 21
-50 37 -46 26 -56 38 -70 77 -12 38 -13 57 -5 98 9 45 20 60 76 115 36 34 64
62 62 62 -3 0 -27 -18 -54 -41z"/>
<path d="M1545 677 c92 -31 148 -76 164 -132 5 -17 10 -22 10 -12 3 62 -84
138 -174 151 l-40 6 40 -13z"/>
<path d="M1126 663 c-4 -5 -22 -13 -39 -20 -25 -9 -27 -12 -11 -12 18 -1 81
38 63 39 -3 0 -9 -3 -13 -7z"/>
<path d="M1421 614 c-12 -15 -21 -32 -21 -38 0 -6 10 4 21 21 l21 33 34 -27
35 -26 -23 -24 c-22 -24 -22 -24 -4 -58 15 -27 25 -35 47 -35 15 0 31 5 34 10
11 18 23 11 54 -32 17 -23 31 -36 31 -30 0 7 -15 29 -34 49 -29 32 -36 35 -49
24 -24 -19 -59 -9 -76 21 -14 25 -14 29 7 51 l22 23 -33 32 c-18 18 -36 32
-39 32 -4 0 -16 -12 -27 -26z"/>
<path d="M308 548 c-20 -15 -35 -112 -37 -240 l-2 -88 46 0 c80 0 239 22 253
34 8 8 15 57 19 139 6 132 0 158 -36 156 -11 0 -9 -3 7 -9 20 -9 22 -15 21
-87 -1 -43 -4 -105 -8 -138 l-6 -60 -70 -6 c-204 -19 -203 -19 -207 -1 -6 24
9 282 17 290 4 4 34 10 68 13 l62 6 -56 1 c-31 1 -62 -3 -71 -10z"/>
<path d="M1391 550 c-2 -46 23 -92 77 -140 62 -55 91 -68 119 -51 15 10 14 10
-9 5 -21 -4 -38 3 -82 35 -59 44 -72 62 -92 126 -7 22 -13 33 -13 25z"/>
<path d="M1027 535 c41 -18 73 -69 73 -117 0 -46 -44 -142 -78 -168 -62 -49
-204 -3 -231 75 -19 57 -8 107 37 158 36 42 36 42 3 12 -93 -83 -79 -208 28
-254 71 -30 131 -28 172 6 40 34 79 120 79 176 0 62 -49 126 -95 126 -14 0
-11 -4 12 -14z"/>
<path d="M1723 475 c0 -22 2 -30 4 -17 2 12 2 30 0 40 -3 9 -5 -1 -4 -23z"/>
<path d="M448 493 c6 -2 12 -18 12 -34 0 -16 4 -29 8 -29 4 0 6 16 4 35 -3 25
-9 35 -21 34 -10 0 -11 -2 -3 -6z"/>
<path d="M395 468 c-6 -13 -20 -24 -32 -26 -19 -3 -23 -10 -23 -38 0 -24 5
-34 15 -34 9 0 15 -9 15 -25 0 -14 9 -34 20 -45 33 -33 140 -24 140 12 0 4
-11 8 -24 8 -46 0 -58 52 -15 65 20 7 28 55 8 55 -6 0 -8 -9 -4 -20 5 -15 0
-23 -19 -32 -42 -18 -29 -78 16 -78 10 0 18 -5 18 -11 0 -17 -109 -6 -121 12
-5 8 -7 26 -5 42 5 22 2 27 -14 27 -24 0 -29 49 -5 51 8 1 20 2 27 3 6 0 13
13 15 29 4 33 1 34 -12 5z"/>
<path d="M960 480 c0 -5 9 -10 20 -10 14 0 18 -5 13 -17 -4 -11 -3 -14 5 -9
17 10 15 33 -4 40 -23 9 -34 7 -34 -4z"/>
<path d="M876 438 c-40 -57 -2 -148 62 -148 27 0 62 26 62 46 0 4 -7 -2 -16
-14 -15 -22 -57 -30 -80 -14 -34 22 -44 93 -18 130 8 12 13 22 10 22 -3 0 -12
-10 -20 -22z"/>
<path d="M933 428 c-11 -13 -24 -32 -27 -44 -9 -28 23 -68 47 -59 21 9 23 35
2 35 -8 0 -15 5 -15 10 0 18 58 11 63 -7 3 -13 5 -12 6 5 1 21 -3 23 -36 20
-27 -2 -39 -8 -41 -20 -2 -11 3 -18 13 -18 9 0 14 -4 10 -10 -12 -19 -35 3
-35 35 0 31 19 56 50 68 13 5 13 6 -1 6 -8 1 -25 -9 -36 -21z"/>
<path d="M1710 417 c0 -26 -61 -88 -105 -108 -22 -10 -33 -19 -25 -18 51 0
162 111 136 136 -3 3 -6 -1 -6 -10z"/>
<path d="M1436 244 c-14 -26 -20 -41 -12 -35 8 6 19 25 26 41 11 26 18 29 64
33 l51 3 -52 2 c-51 2 -51 2 -77 -44z"/>
</g>
</svg>
