<?xml version="1.0" standalone="no"?>
<!DOCTYPE svg PUBLIC "-//W3C//DTD SVG 20010904//EN"
 "http://www.w3.org/TR/2001/REC-SVG-20010904/DTD/svg10.dtd">
<svg version="1.0" xmlns="http://www.w3.org/2000/svg"
 width="201.000000pt" height="203.000000pt" viewBox="0 0 201.000000 203.000000"
 preserveAspectRatio="xMidYMid meet">

<g transform="translate(0.000000,203.000000) scale(0.100000,-0.100000)"
fill="#000000" stroke="none">
<path d="M322 1838 c-7 -7 -12 -15 -12 -19 0 -3 -30 -59 -66 -123 -36 -64 -63
-122 -61 -129 4 -9 6 -8 6 2 1 19 141 261 150 261 5 0 29 -22 55 -50 42 -44
46 -54 46 -97 -1 -64 -28 -122 -90 -187 -27 -29 -50 -57 -50 -61 0 -5 23 16
50 46 68 73 100 139 100 205 0 46 -4 56 -41 98 -49 56 -72 69 -87 54z"/>
<path d="M720 1755 c-7 -9 -10 -18 -6 -22 3 -3 6 -1 6 6 0 6 10 16 23 21 15 6
17 9 6 9 -9 1 -22 -6 -29 -14z"/>
<path d="M794 1695 c-8 -31 -21 -32 -52 -2 l-25 22 17 -27 c12 -18 28 -28 54
-31 47 -6 91 -6 75 0 -8 3 -3 13 15 29 l27 25 -30 -19 c-62 -41 -89 -37 -65 9
7 13 7 19 1 19 -6 0 -13 -11 -17 -25z"/>
<path d="M307 1598 c-23 -124 -36 -168 -47 -168 -21 0 -72 58 -80 90 -6 28 -8
30 -9 10 -1 -34 33 -88 65 -102 22 -10 25 -17 22 -50 -2 -21 0 -38 4 -38 5 0
8 9 8 20 0 11 14 82 30 157 17 75 30 146 28 157 -2 12 -11 -22 -21 -76z"/>
<path d="M943 1642 c42 -15 52 -24 82 -77 19 -33 35 -57 35 -52 0 4 -14 33
-32 63 -31 56 -72 85 -115 83 -10 0 4 -8 30 -17z"/>
<path d="M646 1599 c-14 -17 -26 -38 -25 -47 0 -11 4 -8 10 8 6 14 20 35 31
47 12 13 19 23 16 23 -4 0 -18 -14 -32 -31z"/>
<path d="M1328 1603 c-6 -16 -12 -37 -14 -47 -1 -11 -8 -24 -16 -30 -12 -9
-13 -14 -3 -23 10 -10 16 -9 25 2 7 8 9 16 4 16 -5 1 5 5 21 9 l30 8 -27 1
c-26 1 -27 3 -16 26 9 19 19 25 47 27 l36 1 -33 4 c-24 3 -32 8 -28 19 10 27
-14 14 -26 -13z"/>
<path d="M1429 1591 c13 -8 13 -12 1 -28 -13 -17 -13 -17 4 -1 19 16 15 38 -7
38 -8 0 -7 -4 2 -9z"/>
<path d="M1715 1571 c34 -15 43 -26 54 -62 7 -24 20 -64 27 -88 17 -53 17 -61
4 -61 -5 0 -17 15 -26 33 l-17 32 -9 -27 c-12 -35 -25 -36 -40 -3 -14 31 -22
31 -42 4 -18 -26 -32 -18 -41 21 -8 35 -21 46 -29 24 -3 -8 -2 -13 3 -10 4 3
16 -14 25 -37 l17 -42 24 28 24 27 16 -30 c18 -35 31 -38 40 -9 l7 21 23 -22
c23 -22 45 -20 45 3 0 6 -11 48 -25 94 -26 85 -42 104 -95 117 -14 3 -7 -2 15
-13z"/>
<path d="M1638 1573 c7 -3 16 -2 19 1 4 3 -2 6 -13 5 -11 0 -14 -3 -6 -6z"/>
<path d="M1582 1558 c-18 -23 -41 -89 -48 -136 -5 -40 -3 -50 15 -66 12 -11
21 -14 21 -8 0 7 -4 12 -9 12 -19 0 -21 34 -6 98 9 37 22 77 31 89 15 25 13
31 -4 11z"/>
<path d="M1388 1543 c7 -3 16 -2 19 1 4 3 -2 6 -13 5 -11 0 -14 -3 -6 -6z"/>
<path d="M694 1524 c-10 -8 -13 -12 -6 -9 8 4 26 11 40 15 22 7 23 8 6 9 -11
1 -29 -6 -40 -15z"/>
<path d="M830 1520 c8 -5 24 -10 34 -10 26 0 18 6 -19 14 -22 5 -26 4 -15 -4z"/>
<path d="M911 1484 c13 -17 26 -30 28 -27 3 2 -8 16 -24 31 l-28 27 24 -31z"/>
<path d="M1362 1493 c15 -10 35 -32 45 -50 16 -30 16 -35 3 -43 -13 -8 -12
-10 3 -10 21 0 22 22 3 59 -14 26 -56 61 -73 61 -4 0 4 -8 19 -17z"/>
<path d="M1177 1472 c-32 -34 -33 -37 -7 -69 23 -30 27 -18 4 15 -14 21 -14
22 8 23 18 1 19 2 5 6 -18 4 -17 6 4 29 12 13 20 24 18 24 -3 0 -17 -13 -32
-28z"/>
<path d="M1051 1424 c0 -11 3 -14 6 -6 3 7 2 16 -1 19 -3 4 -6 -2 -5 -13z"/>
<path d="M1260 1418 c25 -12 65 -22 90 -24 l45 -3 -45 9 c-25 4 -62 15 -82 24
-54 23 -61 18 -8 -6z"/>
<path d="M1576 1405 c-3 -9 -6 -22 -5 -28 0 -7 5 -1 10 12 5 13 8 26 5 28 -2
2 -6 -3 -10 -12z"/>
<path d="M873 1403 c9 -2 23 -2 30 0 6 3 -1 5 -18 5 -16 0 -22 -2 -12 -5z"/>
<path d="M800 1390 c-21 -7 -21 -8 -5 -9 11 0 27 4 35 9 18 11 5 11 -30 0z"/>
<path d="M703 1360 c-24 -10 -43 -21 -43 -24 0 -3 19 3 43 13 23 10 49 21 57
24 13 5 13 5 0 6 -8 0 -34 -8 -57 -19z"/>
<path d="M1201 1334 c0 -11 3 -14 6 -6 3 7 2 16 -1 19 -3 4 -6 -2 -5 -13z"/>
<path d="M251 1304 c0 -11 3 -14 6 -6 3 7 2 16 -1 19 -3 4 -6 -2 -5 -13z"/>
<path d="M1320 1290 c-14 -34 -8 -116 10 -151 18 -33 22 -16 5 24 -18 42 -19
85 -5 123 15 38 5 41 -10 4z"/>
<path d="M1211 1298 c0 -9 -4 -25 -7 -35 -5 -17 -5 -17 6 0 6 10 9 25 7 35 -4
15 -5 15 -6 0z"/>
<path d="M1537 1286 c-4 -9 -3 -15 1 -12 5 3 16 -11 27 -30 10 -19 21 -34 24
-33 3 0 17 14 30 32 l25 32 -25 -22 c-14 -13 -28 -23 -32 -23 -4 0 -15 16 -25
36 -15 29 -20 33 -25 20z"/>
<path d="M1654 1274 c9 -8 16 -21 16 -28 0 -8 6 -18 13 -24 10 -9 16 -4 25 21
10 29 10 30 -3 13 -16 -21 -17 -21 -34 12 -6 12 -16 22 -22 22 -6 0 -3 -7 5
-16z"/>
<path d="M1738 1282 c29 -19 61 -76 57 -101 -5 -26 -5 -26 5 -2 8 19 5 31 -17
67 -16 24 -35 44 -43 44 -11 0 -12 -2 -2 -8z"/>
<path d="M873 1273 c9 -2 23 -2 30 0 6 3 -1 5 -18 5 -16 0 -22 -2 -12 -5z"/>
<path d="M755 1260 c-4 -6 -2 -10 4 -10 16 0 58 -44 62 -65 3 -12 17 -24 37
-31 19 -6 38 -17 43 -25 5 -8 9 -9 9 -3 0 16 -20 30 -52 38 -21 5 -28 12 -28
31 0 15 -7 26 -20 30 -11 3 -20 12 -20 20 0 16 -27 28 -35 15z"/>
<path d="M1516 1245 c-9 -26 -7 -32 5 -12 6 10 9 21 6 23 -2 3 -7 -2 -11 -11z"/>
<path d="M1159 1203 c-13 -16 -12 -17 4 -4 16 13 21 21 13 21 -2 0 -10 -8 -17
-17z"/>
<path d="M731 1197 c-1 -10 6 -33 13 -52 12 -29 20 -35 45 -35 21 0 32 -6 36
-21 4 -11 9 -18 12 -16 2 3 0 15 -7 26 -7 14 -21 21 -40 21 -26 0 -31 5 -44
48 -8 26 -15 39 -15 29z"/>
<path d="M1092 1182 c-7 -5 -10 -15 -7 -24 7 -17 81 -45 92 -35 3 4 -2 7 -13
7 -22 0 -64 26 -64 40 0 5 8 11 18 13 12 3 13 5 2 6 -8 0 -21 -3 -28 -7z"/>
<path d="M1501 1148 c-3 -52 102 -114 172 -103 36 7 117 65 117 85 0 4 -17 -9
-37 -30 -65 -63 -152 -61 -214 7 -15 15 -29 35 -32 43 -4 12 -6 12 -6 -2z"/>
<path d="M1095 1111 c4 -14 11 -29 16 -35 5 -6 18 -21 28 -34 16 -20 23 -21
57 -13 l39 10 -40 -2 c-37 -2 -42 1 -74 48 -18 28 -30 39 -26 26z"/>
<path d="M1380 1119 c0 -9 -28 -10 -97 -7 -58 3 -86 2 -70 -3 16 -4 61 -9 100
-10 60 -2 73 0 75 14 2 9 1 17 -2 17 -3 0 -6 -5 -6 -11z"/>
<path d="M911 1094 c0 -11 3 -14 6 -6 3 7 2 16 -1 19 -3 4 -6 -2 -5 -13z"/>
<path d="M392 1075 c0 -16 2 -22 5 -12 2 9 2 23 0 30 -3 6 -5 -1 -5 -18z"/>
<path d="M1335 1059 c-21 -14 -41 -18 -65 -15 -30 4 -32 3 -13 -6 27 -13 63
-5 94 22 30 25 23 24 -16 -1z"/>
<path d="M343 1036 c1 -11 9 -21 17 -23 10 -3 11 -2 4 4 -6 4 -14 15 -17 23
-5 11 -6 9 -4 -4z"/>
<path d="M811 1017 c-13 -21 -12 -21 5 -5 10 10 16 20 13 22 -3 3 -11 -5 -18
-17z"/>
<path d="M610 996 c0 -2 9 -6 20 -9 11 -3 18 -1 14 4 -5 9 -34 13 -34 5z"/>
<path d="M1558 988 c-7 -8 -40 -13 -78 -13 -55 -1 -74 -6 -120 -33 -30 -17
-51 -32 -47 -32 5 0 28 12 52 26 47 27 155 46 155 26 0 -6 -17 -24 -37 -41
l-37 -31 34 -35 c19 -19 39 -35 45 -35 12 0 115 101 115 113 0 10 -52 67 -61
67 -4 0 -14 -6 -21 -12z m22 -113 l-50 -50 -32 33 -33 33 35 30 c19 16 44 39
55 50 l20 21 28 -33 27 -34 -50 -50z"/>
<path d="M740 960 c-21 -7 -21 -8 -5 -9 11 0 27 4 35 9 18 11 5 11 -30 0z"/>
<path d="M264 925 c-18 -14 -17 -14 14 -9 23 5 32 3 32 -6 0 -8 3 -10 6 -7 7
7 -14 37 -25 37 -4 0 -16 -7 -27 -15z"/>
<path d="M619 911 c17 -16 37 -21 78 -21 57 0 140 17 148 30 3 5 -16 2 -42 -6
-62 -19 -152 -18 -183 2 l-25 16 24 -21z"/>
<path d="M1250 890 c-19 -4 -26 -8 -15 -9 20 -2 20 -2 1 -16 -11 -8 -16 -15
-11 -15 5 0 17 8 27 17 27 24 68 7 90 -37 14 -26 18 -30 18 -14 0 45 -57 84
-110 74z"/>
<path d="M230 881 c0 -10 19 -25 25 -20 1 2 -3 10 -11 17 -8 7 -14 8 -14 3z"/>
<path d="M1159 865 c-25 -14 -45 -43 -35 -52 2 -3 7 4 10 15 4 11 23 27 44 36
20 8 30 15 22 15 -8 0 -27 -6 -41 -14z"/>
<path d="M1209 830 c-22 -54 66 -103 117 -65 17 13 16 13 -12 3 -47 -17 -92 4
-96 45 -2 20 -5 26 -9 17z"/>
<path d="M436 812 c6 -4 16 -16 22 -27 8 -15 11 -16 12 -4 0 17 -19 39 -34 39
-8 0 -7 -3 0 -8z"/>
<path d="M1106 778 c-3 -13 -6 -35 -6 -50 0 -24 -4 -27 -47 -33 -96 -13 -98
-14 -99 -81 l0 -59 3 57 4 57 47 7 c26 4 90 8 142 8 l95 1 5 -130 6 -130 2
138 2 137 -57 2 c-32 1 -66 1 -77 1 -16 0 -18 6 -13 49 6 51 3 63 -7 26z"/>
<path d="M420 747 c0 -10 8 -17 18 -17 9 0 13 4 7 8 -5 4 -13 11 -17 16 -5 5
-8 2 -8 -7z"/>
<path d="M715 720 c-32 -12 -47 -36 -40 -62 10 -32 35 -58 54 -57 12 0 10 3
-5 11 -25 12 -46 52 -38 73 8 21 45 30 55 14 7 -11 9 -10 9 3 0 22 -10 27 -35
18z"/>
<path d="M550 680 c0 -5 6 -10 14 -10 7 0 21 -10 29 -22 9 -13 16 -17 16 -10
1 14 -35 52 -49 52 -5 0 -10 -4 -10 -10z"/>
<path d="M806 665 c-29 -31 -34 -31 -46 -2 -9 22 -9 22 -9 1 -1 -12 6 -27 14
-34 13 -11 20 -8 45 21 25 29 31 32 40 19 11 -16 5 -57 -12 -77 -6 -7 -21 -13
-34 -13 -13 0 -24 -4 -24 -10 0 -12 6 -12 38 -4 31 9 55 57 47 95 -8 36 -28
37 -59 4z"/>
<path d="M531 638 c-3 -46 33 -65 60 -30 13 15 12 16 -3 3 -23 -17 -45 -8 -51
21 -2 13 -5 16 -6 6z"/>
<path d="M1055 620 c-16 -8 -13 -9 13 -4 19 3 54 3 78 -1 l44 -6 0 -60 c0 -36
-4 -59 -11 -59 -6 0 -9 -7 -5 -15 3 -9 0 -15 -10 -15 -11 0 -14 6 -10 16 3 8
2 12 -4 9 -6 -3 -10 0 -11 7 0 7 -5 3 -11 -9 -6 -13 -16 -23 -22 -24 -6 0 -2
-4 9 -9 19 -8 19 -9 -2 -9 -13 -1 -23 -7 -23 -15 0 -7 -6 -19 -13 -25 -24 -20
-50 10 -51 60 -1 44 -1 44 33 45 19 0 36 5 38 10 2 7 -9 9 -28 6 -24 -3 -36 0
-46 14 -12 16 -13 15 -14 -17 -3 -106 8 -128 69 -136 64 -8 105 8 119 48 10
29 8 175 -3 187 -7 9 -121 11 -139 2z m115 -170 c20 0 28 -24 11 -34 -5 -4
-22 -7 -38 -8 -15 -1 -34 -6 -41 -11 -9 -7 -11 -6 -6 7 4 10 18 16 39 16 19 0
37 5 41 12 5 8 2 9 -9 5 -11 -4 -20 1 -27 13 -13 24 -12 40 1 18 5 -10 19 -18
29 -18z"/>
<path d="M1022 580 c0 -14 2 -19 5 -12 2 6 2 18 0 25 -3 6 -5 1 -5 -13z"/>
<path d="M761 487 c-6 -35 -11 -75 -10 -88 1 -13 7 14 15 60 8 46 12 86 10 88
-2 2 -9 -25 -15 -60z"/>
<path d="M1107 509 c-5 -17 -3 -18 10 -7 9 7 28 11 42 10 20 -2 23 -1 11 7
-25 18 -57 13 -63 -10z"/>
<path d="M722 490 c0 -14 2 -19 5 -12 2 6 2 18 0 25 -3 6 -5 1 -5 -13z"/>
<path d="M947 435 c3 -44 7 -83 9 -86 16 -26 294 -7 301 21 3 11 2 12 -4 3
-10 -14 -224 -30 -265 -20 -23 6 -27 14 -36 84 l-11 78 6 -80z"/>
<path d="M712 440 c0 -14 2 -19 5 -12 2 6 2 18 0 25 -3 6 -5 1 -5 -13z"/>
<path d="M1056 423 c-6 -14 -5 -15 5 -6 7 7 10 15 7 18 -3 3 -9 -2 -12 -12z"/>
<path d="M701 394 c0 -11 3 -14 6 -6 3 7 2 16 -1 19 -3 4 -6 -2 -5 -13z"/>
<path d="M692 345 c0 -16 2 -22 5 -12 2 9 2 23 0 30 -3 6 -5 -1 -5 -18z"/>
<path d="M742 340 c0 -19 2 -27 5 -17 2 9 2 25 0 35 -3 9 -5 1 -5 -18z"/>
<path d="M682 290 c0 -14 2 -19 5 -12 2 6 2 18 0 25 -3 6 -5 1 -5 -13z"/>
<path d="M732 268 c-2 -27 2 -38 13 -38 7 0 19 -8 24 -17 10 -17 10 -17 11 0
0 11 -9 21 -19 24 -13 3 -21 16 -24 37 -4 29 -4 29 -5 -6z"/>
<path d="M650 248 c0 -4 7 -8 15 -8 8 0 15 4 15 8 0 5 -7 9 -15 9 -8 0 -15 -4
-15 -9z"/>
<path d="M615 240 c-3 -6 1 -7 9 -4 18 7 21 14 7 14 -6 0 -13 -4 -16 -10z"/>
<path d="M662 202 l-21 -27 -21 24 c-11 13 -20 19 -20 13 0 -14 28 -42 42 -42
5 0 18 10 29 23 l19 22 28 -34 c25 -29 31 -32 48 -22 18 11 18 12 -3 6 -16 -4
-25 1 -39 24 -24 41 -38 44 -62 13z"/>
</g>
</svg>
