<?xml version="1.0" standalone="no"?>
<!DOCTYPE svg PUBLIC "-//W3C//DTD SVG 20010904//EN"
 "http://www.w3.org/TR/2001/REC-SVG-20010904/DTD/svg10.dtd">
<svg version="1.0" xmlns="http://www.w3.org/2000/svg"
 width="214.000000pt" height="214.000000pt" viewBox="0 0 214.000000 214.000000"
 preserveAspectRatio="xMidYMid meet">

<g transform="translate(0.000000,214.000000) scale(0.100000,-0.100000)"
fill="#000000" stroke="none">
<path d="M750 2130 c0 -6 -39 -10 -107 -10 -115 0 -219 -18 -280 -47 -79 -37
-176 -157 -225 -277 -65 -159 -122 -481 -133 -746 l-5 -115 14 100 c8 55 21
165 31 245 44 381 115 590 245 721 56 56 126 84 242 98 113 14 993 7 1078 -8
260 -47 381 -107 461 -232 29 -43 55 -66 66 -56 2 3 -7 17 -21 33 -13 16 -48
58 -77 93 -40 50 -65 70 -114 92 -77 35 -232 75 -345 89 -193 24 -830 40 -830
20z"/>
<path d="M1508 1960 c-11 -17 -14 -18 -29 -4 -16 14 -19 14 -39 -6 -18 -18
-24 -20 -31 -9 -5 8 -9 17 -9 22 0 4 -4 7 -8 7 -11 0 -42 -55 -41 -72 0 -7 7
2 15 20 18 42 30 41 38 -3 8 -41 21 -39 29 5 7 32 34 42 42 15 15 -46 18 -51
22 -27 3 17 11 22 34 22 19 0 29 -5 29 -15 0 -8 4 -15 10 -15 5 0 7 8 4 18
-20 63 -44 78 -66 42z m32 -5 c0 -8 -7 -15 -15 -15 -16 0 -20 12 -8 23 11 12
23 8 23 -8z"/>
<path d="M1152 1943 c-16 -44 -23 -93 -12 -93 6 0 10 15 10 34 0 44 9 66 26
66 19 0 18 -29 -1 -36 -21 -8 -19 -28 5 -49 26 -24 39 -11 15 15 -14 16 -16
23 -7 32 17 17 15 45 -4 52 -22 8 -20 9 -32 -21z"/>
<path d="M793 1949 c-7 -7 -13 -21 -13 -30 0 -10 -4 -20 -10 -24 -5 -3 -7 -12
-4 -20 5 -12 10 -12 31 2 21 14 26 14 34 2 5 -8 9 -19 9 -25 0 -6 6 -16 13
-22 8 -7 11 -28 9 -56 l-4 -46 -49 0 c-37 0 -51 -4 -56 -16 -11 -28 26 -46 85
-41 l53 3 37 -75 c39 -80 41 -100 15 -169 -23 -62 -72 -82 -107 -43 -16 17
-14 20 24 58 28 29 40 49 40 69 0 28 -1 27 -19 -12 -19 -41 -37 -61 -48 -51
-2 3 1 31 7 62 8 37 8 61 2 67 -10 10 -16 -12 -28 -109 -4 -31 -11 -50 -16
-46 -20 11 -78 21 -78 12 0 -5 10 -9 23 -9 25 0 87 -35 87 -49 0 -5 14 -14 30
-21 27 -11 34 -10 69 14 41 29 67 89 56 129 -5 18 -4 19 5 7 10 -12 11 -11 7
8 -3 13 -1 37 4 54 6 23 5 34 -5 42 -24 19 -27 65 -10 127 9 33 14 62 11 65
-3 4 -12 -15 -20 -41 l-13 -47 -17 25 c-13 20 -15 32 -7 52 6 15 10 37 10 50
0 30 -29 105 -41 105 -4 0 -22 -15 -38 -32 -22 -24 -31 -28 -31 -17 0 9 -8 27
-17 38 -15 18 -20 20 -30 10z m19 -41 c-15 -15 -26 -4 -18 18 5 13 9 15 18 6
9 -9 9 -15 0 -24z m113 -22 c16 -43 16 -45 -6 -92 -13 -27 -25 -53 -28 -59 -2
-5 3 -4 13 4 9 8 19 12 22 9 8 -9 55 -191 50 -196 -3 -2 -19 24 -36 59 -17 35
-37 75 -45 89 -8 14 -15 47 -15 73 0 26 -7 58 -15 70 -13 21 -13 26 8 55 12
17 25 32 29 32 3 0 14 -20 23 -44z m-70 -186 c-8 -12 -72 -13 -79 -1 -3 5 15
9 40 9 26 1 42 -3 39 -8z"/>
<path d="M902 1848 c-1 -20 -5 -45 -8 -55 -5 -14 -4 -15 5 -7 7 7 11 29 8 55
-3 42 -4 42 -5 7z"/>
<path d="M1273 1952 c-7 -4 -19 -26 -28 -47 -12 -30 -12 -36 -2 -22 8 9 20 17
27 17 7 0 19 -8 26 -17 12 -17 13 -16 13 7 0 34 -21 71 -36 62z m7 -22 c0 -5
-5 -10 -11 -10 -5 0 -7 5 -4 10 3 6 8 10 11 10 2 0 4 -4 4 -10z"/>
<path d="M662 1923 c-16 -44 -24 -85 -14 -79 5 3 12 24 16 46 5 31 11 41 23
38 22 -4 29 -28 8 -28 -27 0 -13 -32 23 -53 26 -16 32 -16 32 -4 0 8 -11 18
-25 21 -22 6 -23 9 -13 26 10 15 10 25 2 38 -18 28 -40 26 -52 -5z"/>
<path d="M611 1900 c-1 -14 -4 -35 -7 -48 -5 -18 -9 -20 -20 -11 -8 6 -14 18
-14 25 0 8 -5 14 -11 14 -7 0 -8 -7 -4 -17 4 -10 10 -26 12 -35 14 -48 59 13
50 68 -4 27 -4 27 -6 4z"/>
<path d="M496 1864 c-11 -28 -6 -42 15 -47 16 -4 19 -11 14 -29 -6 -22 -6 -22
9 -4 22 27 20 35 -9 48 -28 13 -30 19 -13 36 8 8 8 12 1 12 -6 0 -14 -7 -17
-16z"/>
<path d="M310 1814 c-13 -33 -13 -105 1 -124 7 -11 8 -5 3 23 -3 20 -3 53 0
72 6 32 9 34 28 24 20 -11 20 -13 5 -24 -22 -16 -21 -22 4 -28 23 -6 17 -27
-7 -27 -8 0 -14 -4 -14 -10 0 -14 12 -12 38 6 22 15 30 44 12 44 -5 0 -10 11
-10 25 0 14 -8 29 -19 35 -28 14 -30 13 -41 -16z"/>
<path d="M431 1823 c-14 -27 -14 -70 -1 -78 6 -3 10 1 10 9 0 19 21 21 38 4
23 -23 13 26 -12 56 -23 30 -23 30 -35 9z"/>
<path d="M662 1684 l-11 -56 49 -56 c28 -31 50 -59 50 -64 0 -4 10 -12 21 -19
27 -14 21 -2 -34 64 l-40 48 22 23 c25 27 27 58 5 91 -28 43 -48 32 -62 -31z
m58 -9 c0 -34 -10 -55 -26 -55 -10 0 -14 13 -14 43 0 24 3 47 7 50 11 11 33
-14 33 -38z"/>
<path d="M1117 1703 c-5 -33 -12 -43 -27 -43 -10 0 -22 -4 -25 -10 -3 -5 3
-10 13 -10 15 0 19 -5 15 -20 -3 -11 -12 -20 -19 -20 -16 0 -18 -9 -5 -28 6
-10 10 -10 21 3 7 8 23 15 36 15 13 0 24 3 24 8 0 4 3 17 6 30 5 16 2 22 -9
22 -12 0 -17 12 -19 48 l-3 47 -8 -42z m21 -80 c-2 -10 -11 -19 -21 -21 -16
-3 -17 -1 -7 17 13 25 33 28 28 4z"/>
<path d="M1504 1699 c5 -25 1 -40 -11 -55 -44 -48 -44 -49 -27 -89 19 -46 30
-39 13 8 -11 33 -10 37 14 67 28 33 34 65 16 90 -8 11 -9 6 -5 -21z"/>
<path d="M1630 1631 c0 -10 -6 -34 -14 -52 -15 -37 -28 -125 -18 -114 6 6 23
63 49 163 3 13 1 22 -6 22 -6 0 -11 -8 -11 -19z"/>
<path d="M537 1633 c-11 -10 -7 -65 7 -105 13 -37 13 -37 -16 -43 -16 -4 -45
-22 -66 -41 -44 -40 -35 -59 29 -59 31 0 46 6 63 26 21 24 22 24 71 11 28 -8
56 -19 64 -26 8 -6 30 -16 50 -22 l36 -10 -58 -27 c-32 -15 -65 -27 -75 -27
-9 0 -24 -5 -32 -10 -26 -17 35 -12 80 6 23 9 43 14 46 11 3 -3 -21 -30 -53
-60 -31 -31 -54 -59 -50 -63 11 -11 109 82 132 127 l16 30 32 -28 c24 -21 52
-32 102 -41 38 -7 81 -22 96 -33 15 -11 43 -19 65 -19 25 0 46 -7 61 -22 18
-17 23 -18 23 -6 0 25 -24 38 -76 41 -27 2 -61 11 -75 20 -15 10 -54 22 -88
28 -49 9 -72 20 -107 50 -25 22 -51 39 -57 39 -7 0 -28 8 -48 18 -19 10 -56
26 -82 36 -46 17 -48 19 -28 33 17 11 21 25 21 69 0 47 -4 59 -26 79 -27 25
-45 31 -57 18z m45 -30 c13 -11 18 -30 18 -64 0 -89 -35 -60 -47 39 -6 45 0
51 29 25z m-37 -163 c0 -19 -51 -44 -73 -35 -14 6 -13 10 13 31 32 26 60 28
60 4z"/>
<path d="M1034 1603 c-3 -16 -11 -46 -16 -68 -6 -22 -12 -56 -14 -75 -2 -19
-7 -54 -10 -77 -6 -39 -4 -42 28 -58 18 -10 40 -23 48 -30 8 -7 33 -15 55 -18
22 -3 49 -8 60 -12 14 -4 12 -2 -5 9 -14 8 -38 15 -53 16 -15 0 -40 8 -55 18
-15 10 -36 23 -47 28 -21 12 -34 54 -16 54 11 0 79 70 95 97 14 25 -8 37 -44
24 -31 -10 -32 -10 -26 12 11 39 19 107 13 107 -4 0 -9 -12 -13 -27z m66 -106
c0 -2 -14 -16 -31 -33 -22 -21 -28 -24 -23 -10 5 14 4 17 -4 12 -7 -4 -12 -3
-12 3 0 13 30 30 53 31 9 0 17 -1 17 -3z"/>
<path d="M1458 1453 c-42 -5 -43 -6 -28 -33 9 -17 5 -21 -31 -30 -60 -16 -83
-35 -110 -86 -16 -31 -37 -52 -62 -65 -42 -22 -69 -71 -71 -126 -1 -28 -5 -33
-26 -33 -14 0 -32 -5 -40 -10 -11 -7 3 -10 47 -10 56 0 63 -2 82 -29 28 -39
38 -103 18 -119 -21 -18 -129 -29 -215 -22 -46 3 -71 2 -69 -5 2 -6 53 -10
128 -10 102 0 130 3 152 18 35 23 60 23 53 0 -3 -10 -2 -31 3 -48 6 -24 13
-30 32 -28 142 14 230 7 169 -12 -28 -9 -26 -29 3 -21 12 3 25 6 30 6 4 0 7
11 7 24 0 26 -15 35 -63 37 -23 1 -17 4 21 10 29 5 79 19 110 32 70 27 108 82
118 168 6 49 3 63 -25 120 -17 35 -31 74 -31 86 0 31 -54 89 -95 103 l-33 11
16 29 c9 16 14 31 12 33 -9 9 -65 14 -102 10z m82 -22 c0 -5 -6 -16 -14 -24
-24 -24 -96 -1 -80 25 7 11 94 10 94 -1z m4 -68 c52 -19 106 -71 106 -103 0
-11 14 -50 31 -86 25 -53 30 -73 25 -106 -8 -47 -36 -106 -62 -129 -39 -35
-176 -67 -233 -54 -38 8 -70 60 -41 68 16 4 50 58 50 79 0 11 -37 10 -61 -2
-16 -9 -19 -7 -19 15 0 35 -38 35 -45 0 -3 -14 -7 -36 -10 -50 -7 -33 -23 -32
-31 3 -11 44 -34 72 -60 72 -21 0 -24 4 -24 40 0 54 21 93 64 118 20 12 49 42
65 68 16 26 44 56 63 65 43 23 120 24 182 2z"/>
<path d="M1570 1273 c21 -43 11 -80 -18 -68 -9 4 -27 8 -40 10 -27 3 -26 2
-41 40 l-11 30 4 -28 c2 -20 -4 -36 -21 -53 -13 -13 -28 -24 -32 -24 -13 0
-21 27 -22 73 l-1 42 -10 -38 c-19 -71 31 -130 64 -77 9 14 24 20 50 20 32 0
38 -3 38 -20 0 -16 3 -18 13 -10 6 5 23 19 37 29 24 19 25 20 9 62 -8 24 -20
44 -27 47 -6 2 -3 -13 8 -35z"/>
<path d="M1571 1128 c1 -18 -2 -42 -7 -53 -7 -18 -6 -18 9 -6 19 15 24 91 7
91 -6 0 -10 -15 -9 -32z"/>
<path d="M1570 980 c0 -5 5 -10 10 -10 6 0 10 5 10 10 0 6 -4 10 -10 10 -5 0
-10 -4 -10 -10z"/>
<path d="M486 1191 c-4 -5 -8 -31 -11 -58 -4 -35 -3 -42 4 -28 5 11 10 34 11
50 l2 30 16 -35 c15 -34 16 -34 20 -10 6 41 21 47 28 12 4 -18 10 -32 15 -32
13 0 11 17 -7 52 -15 29 -18 30 -29 15 -15 -21 -25 -22 -25 -2 0 17 -16 20
-24 6z"/>
<path d="M405 1156 c-8 -41 1 -76 20 -76 31 0 33 102 3 108 -12 2 -19 -6 -23
-32z m35 -21 c0 -37 -13 -47 -24 -19 -8 20 2 54 15 54 5 0 9 -16 9 -35z"/>
<path d="M872 1176 c-92 -10 -106 -14 -124 -36 -15 -18 -19 -34 -15 -62 l5
-38 -38 0 c-30 0 -44 -6 -63 -30 -31 -37 -41 -78 -27 -115 10 -26 13 -27 58
-21 26 3 92 9 147 12 119 7 145 20 145 69 0 45 -17 80 -45 93 -21 10 -85 8
-132 -3 -32 -7 -48 25 -33 69 l10 32 131 13 c116 10 134 10 155 -4 50 -32 22
-85 -45 -85 -16 0 -33 -4 -36 -10 -8 -13 20 -13 67 0 61 17 75 64 33 105 -27
28 -31 28 -193 11z m47 -153 c21 -18 32 -77 18 -100 -4 -6 -50 -13 -104 -16
-54 -4 -124 -9 -155 -13 l-58 -7 0 44 c0 67 20 89 83 90 29 0 61 4 72 9 37 16
121 11 144 -7z"/>
<path d="M327 1133 c-13 -12 -7 -60 8 -73 9 -7 18 -10 22 -6 4 3 -2 12 -12 20
-13 9 -16 20 -11 39 6 27 5 32 -7 20z"/>
<path d="M227 1113 c-17 -16 -6 -54 19 -65 20 -10 24 -17 19 -37 -5 -21 -4
-23 9 -12 26 22 19 51 -15 63 -25 9 -30 14 -25 34 7 25 4 29 -7 17z"/>
<path d="M161 1076 c-32 -10 -33 -12 -28 -54 6 -57 25 -76 60 -63 15 6 27 15
27 21 0 6 -9 6 -24 0 -35 -13 -39 -1 -8 27 l27 24 -25 -7 c-39 -10 -42 -10
-47 4 -3 7 10 19 32 27 19 9 33 20 30 25 -3 6 -7 9 -8 9 -1 -1 -17 -7 -36 -13z"/>
<path d="M474 1025 c-14 -22 -15 -30 -4 -50 19 -35 38 -38 57 -9 12 19 14 32
7 52 -13 36 -39 39 -60 7z m51 -6 c10 -15 -4 -61 -17 -57 -18 6 -32 34 -25 52
7 18 32 22 42 5z"/>
<path d="M372 1005 c-13 -29 -15 -55 -6 -79 11 -30 23 -16 12 14 -8 24 -7 35
7 56 13 21 19 23 31 13 13 -10 12 -15 -7 -35 -18 -19 -20 -26 -9 -39 14 -17
56 -20 65 -5 4 6 -7 10 -24 10 -33 0 -42 14 -16 24 18 7 20 37 3 54 -20 20
-44 14 -56 -13z"/>
<path d="M1806 950 c-9 -46 -8 -90 3 -90 12 0 21 25 21 58 1 22 6 17 32 -33
43 -83 58 -152 58 -277 0 -94 -4 -117 -31 -195 -32 -92 -70 -153 -95 -153 -7
0 -14 -4 -14 -10 0 -5 9 -10 19 -10 32 0 76 66 110 163 28 82 31 104 31 204 0
133 -12 198 -51 276 -35 69 -35 69 -7 65 11 -2 23 3 25 10 3 7 -4 12 -15 12
-11 0 -33 3 -49 6 -28 5 -31 3 -37 -26z"/>
<path d="M260 951 c-8 -15 -8 -32 0 -62 6 -23 14 -39 17 -36 3 4 0 20 -5 37
-13 35 -6 60 15 60 10 0 12 -6 8 -21 -5 -15 -2 -22 15 -26 l21 -6 -22 -23
c-12 -13 -18 -24 -11 -24 6 0 20 12 31 26 16 20 18 30 10 40 -6 8 -15 11 -20
8 -5 -3 -8 5 -6 18 3 31 -37 38 -53 9z"/>
<path d="M3 825 c0 -22 2 -30 4 -17 2 12 2 30 0 40 -3 9 -5 -1 -4 -23z"/>
<path d="M392 855 c4 -4 27 -10 50 -12 24 -2 56 -14 72 -25 22 -15 38 -19 69
-15 32 4 46 1 72 -19 43 -32 52 -19 13 18 -27 25 -35 28 -55 19 -34 -16 -51
-14 -83 9 -27 19 -154 42 -138 25z"/>
<path d="M1674 794 c3 -9 6 -21 6 -27 0 -8 3 -8 11 0 13 13 5 43 -12 43 -6 0
-8 -7 -5 -16z"/>
<path d="M938 795 c-3 -3 -1 -28 5 -56 12 -63 32 -75 80 -49 21 11 39 20 42
20 2 0 10 -18 16 -40 11 -36 15 -40 45 -40 18 0 36 5 39 10 4 7 -2 9 -19 4
-23 -5 -28 -2 -46 40 -10 25 -23 46 -27 46 -4 0 -23 -9 -42 -21 -43 -26 -57
-20 -65 28 -8 42 -19 66 -28 58z"/>
<path d="M1600 781 c0 -5 6 -14 14 -20 10 -9 19 -7 37 9 13 10 19 19 14 20 -6
0 -16 -5 -22 -11 -8 -8 -13 -8 -17 0 -9 13 -26 15 -26 2z"/>
<path d="M0 555 c0 -126 2 -226 5 -223 7 7 7 439 0 446 -3 3 -5 -97 -5 -223z"/>
<path d="M408 713 c-21 -25 -34 -73 -47 -173 -20 -154 -52 -344 -67 -394 -21
-74 -19 -84 19 -88 28 -3 32 -6 29 -30 -2 -16 1 -28 7 -28 6 0 11 11 11 25 l0
26 88 -3 c82 -3 87 -4 90 -26 2 -12 8 -22 14 -22 6 0 8 10 4 25 -6 22 -3 26
23 31 l29 6 5 102 c7 150 16 172 85 203 84 37 110 59 118 99 12 66 -44 85
-122 39 l-42 -25 20 74 c23 83 19 126 -12 126 -11 0 -25 -9 -32 -20 -17 -27
-23 -25 -25 6 0 15 -8 33 -16 41 -19 20 -51 3 -77 -40 -18 -28 -20 -29 -20
-10 0 62 -48 95 -82 56z m52 -8 c9 -11 11 -42 8 -110 -3 -52 -1 -95 3 -95 5 0
9 10 9 23 0 78 60 187 95 173 15 -5 17 -14 11 -64 -3 -31 -9 -75 -12 -96 -5
-28 -4 -37 4 -32 7 4 12 19 12 33 0 33 38 113 57 120 33 13 36 -15 9 -108 -15
-50 -24 -94 -21 -97 3 -3 15 4 28 16 12 11 38 28 58 36 99 41 120 -53 22 -99
-21 -9 -53 -24 -71 -33 -18 -8 -39 -26 -47 -41 -11 -20 -14 -22 -15 -8 0 10
-4 15 -10 12 -6 -4 -10 -58 -10 -130 l0 -124 -45 -7 c-25 -3 -74 -3 -108 0
-34 4 -79 7 -99 6 -42 -1 -42 0 -28 50 11 36 38 206 67 412 15 110 38 178 62
178 5 0 14 -7 21 -15z"/>
<path d="M1383 718 c-24 -30 -35 -92 -29 -156 l7 -64 -31 6 c-16 3 -43 9 -60
12 -49 10 -80 -2 -80 -32 0 -37 41 -71 110 -91 60 -18 61 -19 55 -48 -3 -16
-10 -52 -14 -80 -5 -27 -21 -93 -35 -145 -28 -101 -30 -120 -18 -120 4 0 18
40 31 90 13 49 27 90 32 92 9 3 29 186 22 205 -3 7 -17 13 -32 13 -34 1 -101
32 -125 59 -18 20 -18 23 -4 38 15 14 21 14 72 -2 30 -10 62 -15 71 -12 13 6
21 35 15 62 -7 33 1 108 15 141 16 38 16 38 35 18 16 -16 21 -35 23 -107 1
-48 5 -87 9 -87 3 0 11 23 17 51 13 61 25 85 59 116 19 18 28 20 38 12 21 -17
17 -58 -11 -117 -28 -60 -28 -62 -17 -62 4 0 15 13 24 29 27 48 136 93 139 59
3 -28 -4 -44 -33 -81 -22 -27 -34 -35 -43 -27 -19 16 -25 0 -9 -25 12 -18 15
-68 17 -244 1 -169 5 -221 15 -221 16 0 17 305 1 396 l-11 62 42 56 c69 91 43
143 -49 97 -52 -27 -52 -27 -39 9 13 38 4 76 -21 90 -15 8 -25 4 -48 -18 -17
-15 -37 -40 -46 -57 l-16 -30 -1 28 c0 45 -26 97 -48 97 -11 0 -24 -6 -29 -12z"/>
<path d="M163 661 c-56 -51 -61 -79 -7 -45 13 9 26 15 28 13 3 -2 -2 -29 -10
-59 -9 -32 -13 -75 -10 -103 6 -60 53 -214 67 -223 15 -9 24 3 12 18 -5 7 -20
50 -32 95 -27 96 -26 206 2 262 13 26 14 37 6 47 -6 8 -7 14 -2 14 13 0 63
-54 63 -68 0 -7 7 -12 15 -12 8 0 15 4 15 10 0 18 -72 90 -89 90 -9 -1 -35
-18 -58 -39z"/>
<path d="M13 265 c0 -27 2 -38 4 -22 2 15 2 37 0 50 -2 12 -4 0 -4 -28z"/>
<path d="M2116 255 c-4 -25 -22 -91 -41 -147 -30 -94 -35 -121 -19 -106 9 9
63 171 64 191 0 9 5 17 10 17 6 0 10 20 10 45 0 58 -16 58 -24 0z"/>
<path d="M80 21 c6 -12 17 -21 25 -21 21 0 19 5 -11 25 -25 16 -25 16 -14 -4z"/>
</g>
</svg>
