<?xml version="1.0" standalone="no"?>
<!DOCTYPE svg PUBLIC "-//W3C//DTD SVG 20010904//EN"
 "http://www.w3.org/TR/2001/REC-SVG-20010904/DTD/svg10.dtd">
<svg version="1.0" xmlns="http://www.w3.org/2000/svg"
 width="192.000000pt" height="211.000000pt" viewBox="0 0 192.000000 211.000000"
 preserveAspectRatio="xMidYMid meet">

<g transform="translate(0.000000,211.000000) scale(0.100000,-0.100000)"
fill="#000000" stroke="none">
<path d="M646 2033 c-23 -35 -65 -125 -53 -113 3 3 21 34 40 70 27 52 40 66
63 71 l29 7 -27 1 c-22 1 -33 -7 -52 -36z"/>
<path d="M793 2053 c9 -2 23 -2 30 0 6 3 -1 5 -18 5 -16 0 -22 -2 -12 -5z"/>
<path d="M878 2043 c6 -2 18 -2 25 0 6 3 1 5 -13 5 -14 0 -19 -2 -12 -5z"/>
<path d="M948 2033 c12 -2 32 -2 45 0 12 2 2 4 -23 4 -25 0 -35 -2 -22 -4z"/>
<path d="M1068 2023 c12 -2 32 -2 45 0 12 2 2 4 -23 4 -25 0 -35 -2 -22 -4z"/>
<path d="M1168 2013 c12 -2 30 -2 40 0 9 3 -1 5 -23 4 -22 0 -30 -2 -17 -4z"/>
<path d="M1253 2003 c9 -2 25 -2 35 0 9 3 1 5 -18 5 -19 0 -27 -2 -17 -5z"/>
<path d="M1319 1991 c12 -8 10 -21 -16 -78 -18 -37 -52 -122 -78 -188 -86
-220 -94 -242 -129 -316 -18 -41 -53 -118 -76 -173 l-43 -99 -61 6 c-157 16
-174 17 -131 8 84 -19 190 -24 202 -10 6 8 33 66 61 129 27 63 62 142 77 175
25 54 99 239 161 403 13 34 33 80 44 101 20 40 18 51 -9 51 -14 0 -14 -2 -2
-9z"/>
<path d="M888 1963 c12 -2 30 -2 40 0 9 3 -1 5 -23 4 -22 0 -30 -2 -17 -4z"/>
<path d="M951 1956 c2 -2 22 -6 44 -9 28 -5 34 -4 20 3 -19 8 -73 14 -64 6z"/>
<path d="M1148 1933 c-26 -30 -31 -70 -11 -83 17 -11 17 -11 1 -6 -10 3 -18 1
-18 -4 0 -12 30 -13 49 -1 11 7 9 11 -8 20 -25 14 -27 38 -5 69 18 26 13 29
-8 5z"/>
<path d="M1185 1940 c-3 -6 1 -7 9 -4 18 7 21 14 7 14 -6 0 -13 -4 -16 -10z"/>
<path d="M1220 1922 c0 -10 -7 -29 -16 -42 l-16 -25 21 24 c19 21 29 61 16 61
-3 0 -5 -8 -5 -18z"/>
<path d="M277 1914 c-3 -5 29 -10 71 -10 43 -1 150 -3 239 -5 88 -2 159 0 156
4 -3 5 -53 8 -112 7 -58 -1 -160 1 -227 5 -70 5 -123 4 -127 -1z"/>
<path d="M248 1890 c-44 -139 -77 -277 -69 -286 3 -3 82 -2 176 1 l170 6 -25
-21 -25 -22 30 18 c16 9 43 21 60 26 16 4 -61 6 -172 3 -112 -3 -203 -4 -203
-2 0 17 36 165 51 210 11 33 18 64 16 71 -3 7 -6 5 -9 -4z"/>
<path d="M888 1893 c18 -2 45 -2 60 0 15 2 0 4 -33 4 -33 0 -45 -2 -27 -4z"/>
<path d="M333 1879 c-11 -5 5 -8 39 -8 31 -1 59 -4 61 -8 3 -5 -4 -32 -15 -60
-14 -39 -25 -53 -39 -53 -25 0 -24 18 2 46 28 30 19 56 -18 52 -19 -2 -29 -11
-36 -33 -10 -29 -23 -45 -40 -45 -4 0 0 16 8 36 21 52 17 67 -6 19 -27 -58
-25 -73 14 -79 101 -16 98 -17 119 31 11 24 20 56 21 71 2 25 -1 27 -45 32
-26 3 -55 3 -65 -1z m57 -47 c0 -5 -9 -17 -20 -27 -11 -10 -20 -26 -20 -37 0
-12 -7 -18 -21 -18 -11 0 -19 3 -17 8 30 62 44 82 60 82 10 0 18 -4 18 -8z"/>
<path d="M801 1860 c13 -37 -1 -107 -40 -201 -35 -82 -25 -83 14 -2 41 88 57
233 25 233 -5 0 -4 -13 1 -30z"/>
<path d="M495 1855 c21 -8 215 -10 215 -3 0 5 -51 8 -112 7 -62 0 -108 -2
-103 -4z"/>
<path d="M501 1816 c4 -4 51 -9 105 -13 55 -3 96 -3 93 0 -3 4 -50 10 -105 13
-54 4 -96 4 -93 0z"/>
<path d="M518 1773 c28 -2 76 -2 105 0 28 2 5 3 -53 3 -58 0 -81 -1 -52 -3z"/>
<path d="M311 1686 c2 -2 65 -6 139 -9 89 -4 115 -3 75 3 -63 8 -221 13 -214
6z"/>
<path d="M222 1655 c7 -8 498 -9 505 -1 4 3 -110 6 -252 6 -142 0 -256 -2
-253 -5z"/>
<path d="M940 1650 c34 -11 60 -11 35 0 -11 5 -29 8 -40 8 -16 0 -15 -2 5 -8z"/>
<path d="M623 1603 c15 -2 37 -2 50 0 12 2 0 4 -28 4 -27 0 -38 -2 -22 -4z"/>
<path d="M873 1603 c9 -2 25 -2 35 0 9 3 1 5 -18 5 -19 0 -27 -2 -17 -5z"/>
<path d="M280 1582 c0 -9 109 -56 115 -51 2 3 -23 17 -55 31 -33 14 -60 23
-60 20z"/>
<path d="M586 1544 c-3 -26 -4 -49 -2 -52 3 -2 8 17 11 43 4 25 5 48 3 51 -3
2 -8 -17 -12 -42z"/>
<path d="M430 1555 c-14 -8 -20 -14 -15 -14 6 0 21 6 35 14 14 8 21 14 15 14
-5 0 -21 -6 -35 -14z"/>
<path d="M508 1555 c12 -22 52 -59 58 -53 2 3 -13 20 -32 39 -22 20 -32 26
-26 14z"/>
<path d="M223 1545 c-3 -9 -3 -18 -1 -21 3 -3 8 4 11 16 6 23 -1 27 -10 5z"/>
<path d="M284 1518 l-19 -23 23 19 c21 18 27 26 19 26 -2 0 -12 -10 -23 -22z"/>
<path d="M713 1533 c20 -2 54 -2 75 0 20 2 3 4 -38 4 -41 0 -58 -2 -37 -4z"/>
<path d="M406 1492 c-9 -2 -14 -7 -11 -12 3 -4 -4 -27 -14 -51 -11 -24 -28
-77 -39 -117 l-20 -72 23 -6 c13 -3 32 -4 42 -1 10 3 4 5 -14 6 -19 1 -33 6
-33 14 0 20 46 160 63 194 16 31 20 32 85 35 l67 3 -66 5 c-37 3 -74 4 -83 2z"/>
<path d="M723 1493 c9 -2 25 -2 35 0 9 3 1 5 -18 5 -19 0 -27 -2 -17 -5z"/>
<path d="M240 1475 c-7 -9 -8 -15 -2 -15 5 0 12 7 16 15 3 8 4 15 2 15 -2 0
-9 -7 -16 -15z"/>
<path d="M788 1483 c6 -2 18 -2 25 0 6 3 1 5 -13 5 -14 0 -19 -2 -12 -5z"/>
<path d="M293 1473 c9 -2 25 -2 35 0 9 3 1 5 -18 5 -19 0 -27 -2 -17 -5z"/>
<path d="M601 1436 c2 -2 54 -6 114 -9 78 -4 93 -3 50 3 -64 8 -171 13 -164 6z"/>
<path d="M646 1368 c-4 -18 -22 -68 -32 -93 -6 -17 -5 -18 7 -8 12 10 17 8 27
-8 16 -26 32 -24 32 4 0 14 -3 18 -8 10 -6 -9 -12 -8 -25 7 -19 23 -4 38 19
19 21 -17 35 4 32 46 -2 23 -9 31 -26 33 -12 2 -24 -2 -26 -10z m39 -28 c0
-13 -5 -25 -11 -27 -13 -4 -23 25 -16 45 7 21 27 8 27 -18z"/>
<path d="M1476 1305 c-3 -9 -6 -22 -5 -28 0 -7 4 -1 10 11 8 22 13 23 52 17
23 -4 43 -8 45 -10 1 -1 -3 -37 -9 -79 -5 -43 -8 -80 -6 -83 3 -2 10 35 17 82
7 47 11 88 8 90 -2 2 -26 7 -54 10 -43 6 -52 4 -58 -10z"/>
<path d="M1462 1230 c0 -19 2 -27 5 -17 2 9 2 25 0 35 -3 9 -5 1 -5 -18z"/>
<path d="M428 1223 c12 -2 30 -2 40 0 9 3 -1 5 -23 4 -22 0 -30 -2 -17 -4z"/>
<path d="M515 1210 c17 -4 41 -8 55 -8 22 0 22 1 -5 8 -16 4 -41 8 -55 8 -22
0 -22 -1 5 -8z"/>
<path d="M650 1180 c30 -11 64 -19 75 -19 11 0 -9 9 -45 19 -82 24 -103 24
-30 0z"/>
<path d="M1449 1150 c-4 -31 -8 -35 -36 -38 -38 -4 -40 -10 -13 -54 23 -39 27
-30 5 12 -15 29 -15 30 9 30 31 0 48 22 44 57 -4 26 -4 26 -9 -7z"/>
<path d="M538 1131 c-15 -38 -18 -40 -52 -34 -40 6 -42 4 -22 -36 26 -50 37
-54 112 -35 38 9 71 19 73 21 3 2 -4 10 -15 17 -18 14 -18 16 15 50 l34 35
-25 6 c-14 4 -40 5 -59 2 -32 -4 -31 -4 8 -5 54 -2 60 -14 23 -45 -31 -27 -39
-46 -17 -48 12 -1 -80 -37 -98 -38 -12 -1 -50 58 -42 66 3 2 15 -1 27 -7 12
-6 23 -10 24 -8 8 10 36 91 33 94 -2 2 -11 -14 -19 -35z"/>
<path d="M1551 1103 c-1 -16 6 -24 24 -29 14 -3 25 -9 25 -13 0 -10 -124 -91
-138 -91 -7 0 -12 4 -12 8 0 5 -7 17 -15 28 -14 17 -14 15 0 -13 8 -18 21 -33
27 -33 14 0 132 76 148 95 8 10 4 16 -19 26 -17 8 -32 20 -35 29 -2 9 -4 6 -5
-7z"/>
<path d="M420 990 l-125 -5 -2 -65 c-1 -42 1 -54 5 -35 l7 30 220 5 c121 3
236 3 255 0 l35 -5 -1 -160 c-1 -206 -15 -490 -24 -505 -4 -6 -32 -14 -63 -17
-32 -3 -57 -9 -57 -13 0 -14 115 11 128 27 8 11 12 53 12 118 0 56 4 137 10
181 5 43 11 147 12 230 3 128 1 151 -12 153 -8 1 -87 1 -174 1 -88 0 -157 3
-153 6 3 4 82 10 174 14 154 8 148 8 -62 4 -127 -3 -247 -9 -268 -13 -34 -8
-37 -7 -37 13 0 23 2 23 188 29 312 11 360 10 365 -10 4 -14 5 -12 6 5 l1 22
-157 -2 c-87 -1 -214 -5 -283 -8z m33 -57 c-7 -2 -19 -2 -25 0 -7 3 -2 5 12 5
14 0 19 -2 13 -5z"/>
<path d="M1535 914 c-11 -2 -87 -5 -170 -7 l-150 -2 -8 -60 c-7 -57 -18 -120
-37 -210 -19 -90 -70 -460 -70 -506 l0 -49 43 2 42 1 -37 4 c-36 4 -38 6 -38
41 0 54 55 430 82 555 l22 107 76 -2 c41 -2 162 1 268 6 192 9 194 9 203 33
11 31 12 83 0 83 -4 0 -6 -10 -4 -23 2 -12 0 -34 -5 -48 l-10 -26 -189 -9
c-180 -8 -332 -8 -341 0 -2 2 0 24 3 49 l7 45 141 2 c78 1 196 5 262 9 l120 8
-95 0 c-52 0 -104 -1 -115 -3z"/>
<path d="M624 863 c113 -4 115 -4 119 -28 4 -23 4 -22 3 2 l-1 28 -118 0 -117
1 114 -3z"/>
<path d="M337 853 c-13 -12 -7 -26 6 -15 7 6 44 13 82 15 l70 3 -76 2 c-42 1
-79 -1 -82 -5z"/>
<path d="M282 820 c0 -19 2 -27 5 -17 2 9 2 25 0 35 -3 9 -5 1 -5 -18z"/>
<path d="M665 830 c3 -5 10 -10 16 -10 5 0 9 5 9 10 0 6 -7 10 -16 10 -8 0
-12 -4 -9 -10z"/>
<path d="M407 824 c-9 -10 2 -24 19 -24 8 0 14 7 14 15 0 15 -21 21 -33 9z"/>
<path d="M552 776 c-6 -13 -13 -45 -16 -72 -5 -46 -5 -45 12 16 l17 65 45 6
45 6 -46 1 c-39 2 -47 -1 -57 -22z"/>
<path d="M695 789 c-37 -6 -35 -6 19 -8 l58 -1 -3 -212 c-2 -117 -1 -199 2
-183 4 17 7 114 8 216 1 186 1 187 -21 190 -13 3 -41 1 -63 -2z"/>
<path d="M1723 713 c-1 -43 5 -148 12 -233 8 -85 16 -203 20 -261 l5 -107
-122 -6 c-68 -4 -197 -11 -288 -16 l-165 -8 210 5 c116 3 246 6 290 8 l80 3
-3 139 c-2 76 -8 174 -14 218 -6 44 -10 137 -10 208 1 70 -2 127 -6 127 -4 0
-8 -35 -9 -77z"/>
<path d="M255 660 c-10 -61 -16 -113 -13 -115 3 -3 13 45 23 105 9 61 15 113
13 115 -2 3 -13 -45 -23 -105z"/>
<path d="M418 763 c12 -2 32 -2 45 0 12 2 2 4 -23 4 -25 0 -35 -2 -22 -4z"/>
<path d="M322 730 c0 -19 2 -27 5 -17 2 9 2 25 0 35 -3 9 -5 1 -5 -18z"/>
<path d="M697 740 c6 -23 28 -27 36 -6 7 17 -1 26 -24 26 -12 0 -16 -6 -12
-20z"/>
<path d="M618 743 c12 -2 32 -2 45 0 12 2 2 4 -23 4 -25 0 -35 -2 -22 -4z"/>
<path d="M435 710 c-27 -7 -27 -8 -5 -8 14 0 36 4 50 8 20 6 21 8 5 8 -11 0
-33 -4 -50 -8z"/>
<path d="M571 686 c2 -2 36 -6 74 -9 44 -4 61 -3 45 2 -24 9 -127 15 -119 7z"/>
<path d="M309 638 c-2 -18 -1 -60 2 -93 5 -55 6 -52 7 33 2 92 -3 121 -9 60z"/>
<path d="M407 628 c6 -10 35 -10 51 0 8 5 -1 8 -22 8 -19 -1 -32 -4 -29 -8z"/>
<path d="M512 602 c-10 -28 -15 -32 -47 -32 -22 0 -38 -6 -41 -15 -4 -9 -19
-15 -40 -15 -33 0 -55 -21 -53 -52 0 -7 5 -1 11 15 8 22 16 27 43 27 62 0 65
-4 66 -94 1 -66 3 -74 9 -46 5 19 10 55 12 80 3 39 0 46 -19 55 -13 5 -23 16
-23 23 0 10 13 12 58 7 31 -4 61 -11 66 -16 5 -4 4 -42 -2 -89 -8 -64 -15 -85
-31 -96 -13 -10 -21 -26 -21 -44 l0 -29 24 22 c19 18 25 40 36 117 16 118 13
134 -23 138 -30 4 -31 5 -16 33 6 11 9 25 6 32 -2 6 -9 -3 -15 -21z m28 -267
c0 -8 -7 -15 -15 -15 -9 0 -12 6 -9 15 4 8 10 15 15 15 5 0 9 -7 9 -15z"/>
<path d="M570 618 c0 -5 25 -8 55 -8 30 0 55 3 55 8 0 4 -25 7 -55 7 -30 0
-55 -3 -55 -7z"/>
<path d="M605 560 c19 -8 103 -14 94 -6 -2 2 -29 6 -59 9 -36 4 -48 3 -35 -3z"/>
<path d="M237 478 c-4 -29 -6 -107 -5 -173 1 -120 1 -119 9 50 4 93 6 171 5
173 -2 1 -6 -21 -9 -50z"/>
<path d="M615 490 c3 -6 20 -10 37 -10 38 0 34 5 -10 13 -21 4 -31 3 -27 -3z"/>
<path d="M503 483 c9 -2 23 -2 30 0 6 3 -1 5 -18 5 -16 0 -22 -2 -12 -5z"/>
<path d="M355 463 c-7 -21 29 -56 54 -51 23 5 21 53 -1 52 -10 -1 -18 2 -18 7
0 16 -28 9 -35 -8z m40 -21 c8 2 14 0 14 -4 1 -5 -1 -8 -4 -8 -3 0 -12 0 -20
0 -9 0 -15 9 -14 23 1 17 2 18 6 4 2 -10 11 -16 18 -15z"/>
<path d="M322 440 c0 -19 2 -27 5 -17 2 9 2 25 0 35 -3 9 -5 1 -5 -18z"/>
<path d="M498 453 c7 -3 16 -2 19 1 4 3 -2 6 -13 5 -11 0 -14 -3 -6 -6z"/>
<path d="M604 434 c-10 -8 -14 -13 -7 -10 6 4 19 -2 29 -11 17 -17 17 -17 12
5 -5 16 -2 22 11 22 23 0 48 -21 54 -45 4 -15 5 -13 6 7 2 45 -64 65 -105 32z"/>
<path d="M600 397 c0 -10 8 -17 18 -17 9 0 13 4 7 8 -5 4 -13 11 -17 16 -5 5
-8 2 -8 -7z"/>
<path d="M300 390 c-13 -9 -13 -10 0 -11 8 -1 21 -1 28 0 18 3 15 -8 -13 -41
-30 -36 -31 -44 -6 -58 25 -13 71 -13 71 0 0 6 -16 10 -35 10 -19 0 -35 3 -35
7 0 4 12 24 26 45 15 21 25 40 23 42 -12 11 -46 14 -59 6z"/>
<path d="M646 359 c-69 -11 -76 -15 -76 -49 0 -25 4 -30 23 -29 18 1 18 2 4 6
-11 3 -16 10 -13 20 3 8 6 19 6 24 0 13 54 11 68 -3 15 -15 16 -38 2 -38 -5 0
-10 10 -10 22 0 15 -3 19 -10 12 -14 -14 -2 -44 16 -44 21 0 29 29 15 51 -9
16 -8 19 9 19 16 0 20 -7 20 -37 0 -28 3 -34 10 -23 7 12 12 12 22 2 19 -19
33 -14 15 6 -10 10 -14 22 -10 26 4 4 1 4 -8 1 -10 -4 -18 3 -24 18 -9 21 -14
23 -59 16z"/>
<path d="M447 333 c-4 -3 -7 -18 -6 -32 1 -26 1 -25 10 3 9 31 7 41 -4 29z"/>
<path d="M1308 283 c6 -2 18 -2 25 0 6 3 1 5 -13 5 -14 0 -19 -2 -12 -5z"/>
<path d="M1504 274 c9 -8 16 -20 16 -26 0 -6 3 -9 6 -6 8 9 -14 48 -27 48 -6
0 -3 -7 5 -16z"/>
<path d="M1355 253 c-23 -30 -43 -64 -29 -48 5 6 22 25 38 43 17 17 26 32 20
32 -5 0 -18 -13 -29 -27z"/>
<path d="M1476 254 c-11 -29 -6 -44 13 -44 11 0 22 4 25 9 4 5 -4 7 -15 4 -20
-5 -21 -3 -15 20 7 29 2 37 -8 11z"/>
<path d="M1422 225 c0 -16 2 -22 5 -12 2 9 2 23 0 30 -3 6 -5 -1 -5 -18z"/>
<path d="M1540 231 c0 -11 -3 -26 -6 -35 -5 -12 0 -16 17 -15 14 1 17 3 8 6
-11 3 -14 12 -11 33 2 17 2 30 -2 30 -3 0 -6 -9 -6 -19z"/>
<path d="M1596 235 c-12 -32 -7 -57 11 -53 9 2 18 9 19 16 1 7 0 8 -3 2 -8
-17 -23 -11 -23 9 0 23 16 36 23 21 3 -6 4 -5 3 2 -4 19 -23 21 -30 3z"/>
<path d="M1652 215 c0 -22 2 -32 5 -22 6 22 12 22 40 -5 13 -12 23 -17 23 -11
0 6 -7 16 -15 23 -9 7 -14 19 -11 27 7 16 -10 17 -20 1 -5 -8 -10 -6 -15 8 -5
13 -7 7 -7 -21z"/>
<path d="M430 209 c-111 -13 -118 -19 -15 -12 50 3 97 9 105 14 18 10 18 10
-90 -2z"/>
<path d="M568 213 c17 -2 47 -2 65 0 17 2 3 4 -33 4 -36 0 -50 -2 -32 -4z"/>
<path d="M1290 185 c-17 -20 4 -27 61 -22 l44 4 -49 1 c-38 2 -47 5 -42 17 7
19 2 19 -14 0z"/>
</g>
</svg>
