<?xml version="1.0" standalone="no"?>
<!DOCTYPE svg PUBLIC "-//W3C//DTD SVG 20010904//EN"
 "http://www.w3.org/TR/2001/REC-SVG-20010904/DTD/svg10.dtd">
<svg version="1.0" xmlns="http://www.w3.org/2000/svg"
 width="196.000000pt" height="154.000000pt" viewBox="0 0 196.000000 154.000000"
 preserveAspectRatio="xMidYMid meet">

<g transform="translate(0.000000,154.000000) scale(0.100000,-0.100000)"
fill="#000000" stroke="none">
<path d="M1218 1404 c-15 -5 -16 -30 -15 -257 l2 -252 75 1 c41 1 172 3 290 5
l215 4 8 75 c4 41 6 152 5 245 l-3 170 -95 1 c-52 1 -178 4 -280 7 -102 3
-193 4 -202 1z m398 -21 l161 -6 6 -75 c6 -76 0 -300 -9 -361 l-5 -33 -47 7
c-61 10 -249 7 -382 -5 -57 -5 -107 -7 -111 -2 -4 4 -9 113 -11 242 l-3 235
35 7 c19 4 73 5 120 2 47 -2 158 -7 246 -11z"/>
<path d="M1444 1273 c-93 -152 -152 -257 -148 -268 9 -21 136 -39 234 -32 126
9 171 18 177 33 5 14 -94 192 -155 277 -45 63 -64 61 -108 -10z m109 -20 c55
-83 137 -223 137 -233 0 -15 -37 -22 -151 -27 -115 -6 -192 0 -218 16 -11 7
-8 17 16 52 17 24 43 68 58 98 33 67 95 161 105 161 4 0 28 -30 53 -67z"/>
<path d="M1497 1273 c-10 -10 -8 -183 2 -183 8 0 21 101 21 163 0 26 -9 34
-23 20z"/>
<path d="M1483 1054 c-8 -22 18 -37 36 -20 7 8 10 19 7 25 -10 16 -36 13 -43
-5z"/>
<path d="M360 1263 c0 -60 -19 -163 -37 -197 -9 -17 -36 -53 -60 -80 -81 -90
-78 -76 -78 -401 1 -326 6 -359 62 -412 l34 -33 123 0 123 0 41 44 c53 58 56
77 57 427 l0 286 -37 74 c-36 71 -51 142 -61 289 l-2 35 -82 3 -83 3 0 -38z
m128 10 c-21 -2 -57 -2 -80 0 -24 2 -7 4 37 4 44 0 63 -2 43 -4z m27 -80 c12
-108 27 -167 59 -227 l31 -60 0 -320 c0 -287 -2 -325 -18 -356 -29 -59 -59
-70 -186 -70 -129 0 -150 9 -175 72 -37 92 -44 575 -10 657 8 19 35 56 59 83
57 60 83 120 91 209 l7 69 68 0 68 0 6 -57z"/>
<path d="M390 1210 c0 -6 7 -10 15 -10 8 0 15 2 15 4 0 2 -7 6 -15 10 -8 3
-15 1 -15 -4z"/>
<path d="M438 1203 c6 -2 18 -2 25 0 6 3 1 5 -13 5 -14 0 -19 -2 -12 -5z"/>
<path d="M461 1164 c0 -11 3 -14 6 -6 3 7 2 16 -1 19 -3 4 -6 -2 -5 -13z"/>
<path d="M485 1130 c-3 -5 -1 -10 4 -10 6 0 11 5 11 10 0 6 -2 10 -4 10 -3 0
-8 -4 -11 -10z"/>
<path d="M470 1044 c0 -39 11 -65 41 -95 10 -10 19 -26 19 -34 0 -8 8 -15 18
-14 10 0 12 3 5 6 -7 2 -13 13 -13 23 0 11 -9 24 -19 29 -24 13 -43 66 -35 97
4 15 2 24 -5 24 -6 0 -11 -16 -11 -36z"/>
<path d="M500 1056 c0 -24 62 -134 68 -118 2 6 -8 27 -22 45 -14 19 -26 40
-26 48 0 8 -5 21 -10 29 -8 13 -10 12 -10 -4z"/>
<path d="M240 911 c-15 -29 -13 -71 4 -71 13 0 36 48 36 76 0 21 -28 17 -40
-5z m18 -26 c-6 -14 -13 -23 -16 -21 -7 7 9 46 18 46 5 0 4 -11 -2 -25z"/>
<path d="M556 773 c-9 -28 -2 -493 7 -484 4 5 7 80 5 167 -1 87 -2 198 -2 247
0 48 -1 87 -2 87 -2 0 -5 -8 -8 -17z"/>
<path d="M517 588 c3 -106 8 -195 10 -198 3 -3 3 84 2 192 -2 109 -7 198 -11
198 -4 0 -5 -87 -1 -192z"/>
<path d="M505 310 c-7 -31 -1 -50 16 -50 6 0 7 6 2 12 -4 7 -6 25 -4 40 3 37
-6 36 -14 -2z"/>
<path d="M286 251 c-4 -5 12 -7 36 -4 57 8 61 13 10 13 -22 0 -43 -4 -46 -9z"/>
<path d="M323 223 c9 -2 25 -2 35 0 9 3 1 5 -18 5 -19 0 -27 -2 -17 -5z"/>
<path d="M485 190 c-3 -5 -1 -10 4 -10 6 0 11 5 11 10 0 6 -2 10 -4 10 -3 0
-8 -4 -11 -10z"/>
<path d="M280 186 c0 -2 7 -6 15 -10 8 -3 15 -1 15 4 0 6 -7 10 -15 10 -8 0
-15 -2 -15 -4z"/>
<path d="M1315 772 c-3 -8 -5 -57 -5 -110 0 -78 4 -103 19 -128 21 -34 67 -65
123 -83 36 -12 37 -13 43 -74 4 -34 5 -78 3 -97 -3 -34 -4 -35 -58 -42 -53 -6
-85 -28 -77 -53 9 -27 259 -29 316 -2 43 20 33 41 -24 47 -59 6 -63 13 -64
147 l-1 92 55 59 c60 65 74 105 75 205 l0 57 -79 0 -79 0 -15 -45 c-15 -44
-15 -45 5 -45 17 0 19 -4 13 -27 -7 -30 -54 -97 -62 -90 -2 3 3 19 11 36 23
44 20 51 -19 51 l-35 0 25 50 c14 27 25 54 25 60 0 17 -188 9 -195 -8z m363
-2 c20 0 22 -4 22 -64 0 -84 -10 -107 -76 -179 l-56 -60 7 -106 c9 -141 9
-141 53 -141 43 0 71 -13 52 -25 -16 -10 -242 -19 -275 -11 -22 6 -25 9 -15
21 7 8 23 15 35 15 12 0 37 3 54 6 l31 7 0 104 0 104 -74 33 c-97 44 -106 61
-106 196 l0 100 81 0 c44 0 79 -3 77 -7 -15 -30 -48 -106 -48 -110 0 -3 16 -3
35 -1 22 3 34 0 31 -6 -16 -38 -28 -87 -22 -93 10 -11 67 49 87 92 23 49 24
65 4 65 -18 0 -19 23 -4 52 9 17 17 19 47 14 21 -3 47 -6 60 -6z"/>
<path d="M865 763 c-76 -17 -85 -23 -85 -61 0 -27 -8 -44 -32 -69 l-32 -33 -9
-176 c-12 -243 -8 -248 211 -257 l133 -6 31 27 c39 36 47 80 47 257 1 162 -2
178 -35 195 -18 10 -24 22 -24 49 0 42 -7 54 -37 70 -21 11 -127 14 -168 4z
m154 -16 c14 -6 26 -18 29 -24 5 -16 -223 -19 -233 -3 -8 13 11 20 78 30 78
11 100 11 126 -3z m-82 -52 c111 0 112 0 118 -25 4 -14 18 -35 33 -47 l27 -21
-2 -173 c-4 -238 -21 -266 -158 -249 -38 5 -95 9 -126 10 -41 0 -63 5 -83 21
-25 20 -26 23 -25 132 0 62 4 145 8 185 6 62 11 76 36 99 27 25 33 27 116 24
58 -2 89 1 94 9 5 9 -7 10 -48 5 -69 -9 -114 1 -128 27 -10 19 -9 20 7 12 11
-5 69 -9 131 -9z"/>
<path d="M1061 388 c-1 -27 4 -48 9 -48 12 0 12 34 0 70 -7 20 -8 16 -9 -22z"/>
<path d="M1057 247 c-3 -9 -17 -17 -29 -17 -21 -1 -22 -1 -4 -11 21 -13 51 10
44 32 -3 9 -6 8 -11 -4z"/>
<path d="M741 241 c-9 -6 -10 -11 -2 -15 6 -4 11 -3 11 2 0 5 12 8 28 5 23 -3
24 -2 7 6 -26 12 -27 12 -44 2z"/>
</g>
</svg>
